<svg width="200" height="200" viewBox="0 0 363 244" fill="none" xmlns="http://www.w3.org/2000/svg">
<g id="boyGirlFriends">
<g clip-path="url(#clip0)">
<g id="boyGirlFriends_2">
<g id="others">
<path id="Vector" opacity="0.25" d="M181.5 243.23C281.74 243.23 363 238.574 363 232.83C363 227.086 281.74 222.43 181.5 222.43C81.2603 222.43 0 227.086 0 232.83C0 238.574 81.2603 243.23 181.5 243.23Z" fill="#6C63FF"/>
<path id="Vector_2" d="M300.163 228.64C304.85 228.64 308.651 227.908 308.651 227.006C308.651 226.104 304.85 225.372 300.163 225.372C295.475 225.372 291.675 226.104 291.675 227.006C291.675 227.908 295.475 228.64 300.163 228.64Z" fill="#6C63FF"/>
<path id="Vector_3" d="M300.022 227.61C300.569 227.61 301.012 227.03 301.012 226.315C301.012 225.6 300.569 225.02 300.022 225.02C299.475 225.02 299.032 225.6 299.032 226.315C299.032 227.03 299.475 227.61 300.022 227.61Z" fill="#3F3D56"/>
<path id="Vector_4" d="M300.022 226.026C300.569 226.026 301.012 225.446 301.012 224.731C301.012 224.016 300.569 223.436 300.022 223.436C299.475 223.436 299.032 224.016 299.032 224.731C299.032 225.446 299.475 226.026 300.022 226.026Z" fill="#3F3D56"/>
<path id="Vector_5" d="M300.022 224.446C300.569 224.446 301.012 223.866 301.012 223.151C301.012 222.436 300.569 221.856 300.022 221.856C299.475 221.856 299.032 222.436 299.032 223.151C299.032 223.866 299.475 224.446 300.022 224.446Z" fill="#3F3D56"/>
<path id="Vector_6" d="M300.022 222.866C300.569 222.866 301.012 222.286 301.012 221.571C301.012 220.856 300.569 220.276 300.022 220.276C299.475 220.276 299.032 220.856 299.032 221.571C299.032 222.286 299.475 222.866 300.022 222.866Z" fill="#3F3D56"/>
<path id="Vector_7" d="M300.022 221.282C300.569 221.282 301.012 220.703 301.012 219.987C301.012 219.272 300.569 218.692 300.022 218.692C299.475 218.692 299.032 219.272 299.032 219.987C299.032 220.703 299.475 221.282 300.022 221.282Z" fill="#3F3D56"/>
<path id="Vector_8" d="M300.022 219.702C300.569 219.702 301.012 219.122 301.012 218.407C301.012 217.692 300.569 217.112 300.022 217.112C299.475 217.112 299.032 217.692 299.032 218.407C299.032 219.122 299.475 219.702 300.022 219.702Z" fill="#3F3D56"/>
<path id="Vector_9" d="M300.022 218.122C300.569 218.122 301.012 217.542 301.012 216.827C301.012 216.112 300.569 215.532 300.022 215.532C299.475 215.532 299.032 216.112 299.032 216.827C299.032 217.542 299.475 218.122 300.022 218.122Z" fill="#3F3D56"/>
<path id="Vector_10" d="M303.719 206.008C303.855 205.835 303.978 205.654 304.088 205.464L301.491 205.038L304.299 205.058C304.568 204.472 304.715 203.837 304.73 203.192C304.746 202.547 304.63 201.906 304.39 201.307L300.622 203.263L304.098 200.707C303.774 200.141 303.336 199.648 302.813 199.26C302.289 198.871 301.691 198.594 301.056 198.447C300.42 198.3 299.762 198.286 299.12 198.406C298.479 198.525 297.87 198.775 297.33 199.141C296.79 199.507 296.332 199.981 295.984 200.532C295.635 201.083 295.404 201.7 295.306 202.345C295.207 202.989 295.242 203.647 295.409 204.278C295.577 204.908 295.872 205.497 296.278 206.008C296.068 206.275 295.887 206.564 295.738 206.87L299.092 208.621L295.499 207.413C295.248 208.161 295.187 208.959 295.323 209.736C295.459 210.514 295.787 211.244 296.278 211.862C295.728 212.56 295.387 213.399 295.292 214.282C295.197 215.165 295.352 216.058 295.74 216.857C296.128 217.656 296.733 218.33 297.486 218.801C298.239 219.272 299.11 219.522 299.998 219.522C300.887 219.522 301.757 219.272 302.51 218.801C303.263 218.33 303.868 217.656 304.256 216.857C304.644 216.058 304.8 215.165 304.705 214.282C304.61 213.399 304.268 212.56 303.719 211.862C304.375 211.028 304.732 209.998 304.732 208.936C304.732 207.875 304.375 206.845 303.719 206.011V206.008Z" fill="#6C63FF"/>
<path id="Vector_11" opacity="0.1" d="M295.265 208.933C295.261 209.994 295.616 211.024 296.271 211.858C295.722 212.557 295.38 213.395 295.285 214.279C295.19 215.162 295.345 216.054 295.733 216.853C296.122 217.652 296.727 218.326 297.48 218.798C298.233 219.269 299.103 219.519 299.992 219.519C300.88 219.519 301.75 219.269 302.503 218.798C303.256 218.326 303.862 217.652 304.25 216.853C304.638 216.054 304.793 215.162 304.698 214.279C304.603 213.395 304.261 212.557 303.712 211.858C304.353 211.053 295.265 208.403 295.265 208.933Z" fill="black"/>
<path id="Vector_12" d="M105.243 241.781C111.506 241.781 116.583 240.805 116.583 239.6C116.583 238.396 111.506 237.419 105.243 237.419C98.9807 237.419 93.9038 238.396 93.9038 239.6C93.9038 240.805 98.9807 241.781 105.243 241.781Z" fill="#6C63FF"/>
<path id="Vector_13" d="M105.052 240.402C105.782 240.402 106.374 239.628 106.374 238.674C106.374 237.72 105.782 236.946 105.052 236.946C104.322 236.946 103.73 237.72 103.73 238.674C103.73 239.628 104.322 240.402 105.052 240.402Z" fill="#3F3D56"/>
<path id="Vector_14" d="M105.052 238.288C105.782 238.288 106.374 237.515 106.374 236.561C106.374 235.606 105.782 234.833 105.052 234.833C104.322 234.833 103.73 235.606 103.73 236.561C103.73 237.515 104.322 238.288 105.052 238.288Z" fill="#3F3D56"/>
<path id="Vector_15" d="M105.052 236.175C105.782 236.175 106.374 235.401 106.374 234.447C106.374 233.493 105.782 232.719 105.052 232.719C104.322 232.719 103.73 233.493 103.73 234.447C103.73 235.401 104.322 236.175 105.052 236.175Z" fill="#3F3D56"/>
<path id="Vector_16" d="M105.052 234.065C105.782 234.065 106.374 233.291 106.374 232.337C106.374 231.383 105.782 230.609 105.052 230.609C104.322 230.609 103.73 231.383 103.73 232.337C103.73 233.291 104.322 234.065 105.052 234.065Z" fill="#3F3D56"/>
<path id="Vector_17" d="M105.052 231.951C105.782 231.951 106.374 231.177 106.374 230.223C106.374 229.269 105.782 228.495 105.052 228.495C104.322 228.495 103.73 229.269 103.73 230.223C103.73 231.177 104.322 231.951 105.052 231.951Z" fill="#3F3D56"/>
<path id="Vector_18" d="M105.052 229.837C105.782 229.837 106.374 229.064 106.374 228.11C106.374 227.155 105.782 226.382 105.052 226.382C104.322 226.382 103.73 227.155 103.73 228.11C103.73 229.064 104.322 229.837 105.052 229.837Z" fill="#3F3D56"/>
<path id="Vector_19" d="M105.052 227.727C105.782 227.727 106.374 226.954 106.374 225.999C106.374 225.045 105.782 224.272 105.052 224.272C104.322 224.272 103.73 225.045 103.73 225.999C103.73 226.954 104.322 227.727 105.052 227.727Z" fill="#3F3D56"/>
<path id="Vector_20" d="M109.997 211.543C110.176 211.312 110.339 211.07 110.487 210.818L107.021 210.248L110.772 210.278C111.133 209.495 111.33 208.647 111.35 207.785C111.371 206.923 111.215 206.066 110.893 205.266L105.86 207.876L110.5 204.481C110.063 203.733 109.478 203.083 108.779 202.57C108.081 202.058 107.285 201.695 106.44 201.503C105.595 201.311 104.72 201.295 103.869 201.455C103.018 201.615 102.209 201.948 101.491 202.434C100.774 202.92 100.165 203.548 99.7004 204.279C99.2361 205.011 98.9269 205.829 98.792 206.685C98.6571 207.541 98.6995 208.415 98.9164 209.253C99.1333 210.092 99.5201 210.877 100.053 211.56C99.7726 211.918 99.5308 212.305 99.3316 212.714L103.837 215.062L99.0331 213.452C98.6951 214.448 98.6101 215.512 98.7858 216.548C98.9615 217.585 99.3923 218.562 100.04 219.39C99.3062 220.323 98.8502 221.444 98.7236 222.623C98.597 223.803 98.8049 224.995 99.3235 226.062C99.8421 227.129 100.651 228.029 101.656 228.659C102.662 229.288 103.825 229.622 105.011 229.622C106.198 229.622 107.361 229.288 108.367 228.659C109.372 228.029 110.181 227.129 110.699 226.062C111.218 224.995 111.426 223.803 111.299 222.623C111.173 221.444 110.717 220.323 109.983 219.39C110.859 218.275 111.335 216.898 111.335 215.48C111.335 214.062 110.859 212.685 109.983 211.57L109.997 211.543Z" fill="#6C63FF"/>
<path id="Vector_21" opacity="0.1" d="M98.701 215.452C98.6967 216.869 99.1694 218.247 100.043 219.363C99.3097 220.296 98.8537 221.417 98.727 222.597C98.6004 223.776 98.8083 224.968 99.3269 226.035C99.8455 227.103 100.654 228.002 101.66 228.632C102.666 229.261 103.828 229.595 105.015 229.595C106.202 229.595 107.364 229.261 108.37 228.632C109.376 228.002 110.184 227.103 110.703 226.035C111.222 224.968 111.429 223.776 111.303 222.597C111.176 221.417 110.72 220.296 109.987 219.363C110.842 218.286 98.701 214.744 98.701 215.452Z" fill="black"/>
<path id="Vector_22" opacity="0.1" d="M114.785 169.627C114.399 169.691 114.013 169.734 113.62 169.761C112.167 169.886 110.705 169.642 109.37 169.053C108.487 168.609 107.669 168.044 106.941 167.376C104.33 165.091 102.256 162.258 100.865 159.079C100.048 157.084 99.3696 155.035 98.8354 152.946C98.0123 150.025 97.1915 147.103 96.3729 144.18C95.5711 141.322 94.7625 138.43 94.5948 135.457C94.323 130.63 95.7723 125.849 97.8088 121.464C98.1561 120.789 98.4359 120.081 98.6441 119.35C98.6441 119.3 98.6676 119.25 98.6777 119.196C104.153 120.159 110.722 130.633 114.11 144.358C116.606 154.621 116.714 164.071 114.785 169.627Z" fill="black"/>
<path id="Vector_23" opacity="0.1" d="M174.455 67.7689C175.752 67.7689 176.803 66.7175 176.803 65.4205C176.803 64.1235 175.752 63.0721 174.455 63.0721C173.158 63.0721 172.106 64.1235 172.106 65.4205C172.106 66.7175 173.158 67.7689 174.455 67.7689Z" fill="#6C63FF"/>
<path id="Vector_24" opacity="0.1" d="M57.7043 135.538C61.0395 135.538 63.7432 132.834 63.7432 129.499C63.7432 126.164 61.0395 123.46 57.7043 123.46C54.3692 123.46 51.6655 126.164 51.6655 129.499C51.6655 132.834 54.3692 135.538 57.7043 135.538Z" fill="#6C63FF"/>
<path id="Vector_25" opacity="0.1" d="M303.619 73.1367C307.88 73.1367 311.335 69.6821 311.335 65.4205C311.335 61.1589 307.88 57.7042 303.619 57.7042C299.357 57.7042 295.902 61.1589 295.902 65.4205C295.902 69.6821 299.357 73.1367 303.619 73.1367Z" fill="#6C63FF"/>
<path id="Vector_26" opacity="0.1" d="M295.231 88.9048C296.528 88.9048 297.58 87.8534 297.58 86.5564C297.58 85.2594 296.528 84.2079 295.231 84.2079C293.934 84.2079 292.883 85.2594 292.883 86.5564C292.883 87.8534 293.934 88.9048 295.231 88.9048Z" fill="#6C63FF"/>
<path id="Vector_27" opacity="0.1" d="M66.0916 160.029C67.3886 160.029 68.44 158.977 68.44 157.68C68.44 156.383 67.3886 155.332 66.0916 155.332C64.7946 155.332 63.7432 156.383 63.7432 157.68C63.7432 158.977 64.7946 160.029 66.0916 160.029Z" fill="#6C63FF"/>
<path id="Vector_28" opacity="0.1" d="M62.4012 106.35C63.6982 106.35 64.7496 105.299 64.7496 104.002C64.7496 102.705 63.6982 101.653 62.4012 101.653C61.1042 101.653 60.0527 102.705 60.0527 104.002C60.0527 105.299 61.1042 106.35 62.4012 106.35Z" fill="#6C63FF"/>
</g>
<g id="boyBackground" opacity="0.5">
<path id="Vector_29" opacity="0.2" d="M125.658 223.577C125.84 224.325 126.083 225.056 126.383 225.764C131.046 223.933 135.761 222.177 140.527 220.497C140.487 220.299 140.446 220.091 140.396 219.887C139.916 217.776 138.891 215.828 137.424 214.237C135.518 212.224 133.062 211.251 130.674 211.845C128.285 212.439 126.55 214.472 125.759 217.146C125.167 219.244 125.132 221.461 125.658 223.577V223.577Z" fill="#3F3D56"/>
<path id="Vector_30" opacity="0.2" d="M132.358 219.575C136.452 218.661 138.779 213.479 137.556 208.002C136.333 202.524 132.022 198.825 127.928 199.74C123.834 200.654 121.507 205.836 122.73 211.313C123.954 216.79 128.264 220.489 132.358 219.575Z" fill="#3F3D56"/>
<path id="Vector_31" opacity="0.2" d="M129.486 207.492C133.58 206.578 135.907 201.396 134.684 195.919C133.46 190.441 129.15 186.742 125.056 187.657C120.962 188.571 118.635 193.753 119.858 199.23C121.081 204.707 125.392 208.406 129.486 207.492Z" fill="#3F3D56"/>
<path id="Vector_32" opacity="0.2" d="M126.607 195.416C130.701 194.502 133.028 189.32 131.805 183.843C130.582 178.366 126.271 174.667 122.177 175.581C118.083 176.495 115.756 181.677 116.979 187.154C118.203 192.632 122.513 196.331 126.607 195.416Z" fill="#3F3D56"/>
<path id="Vector_33" opacity="0.2" d="M123.728 183.337C127.822 182.423 130.149 177.241 128.926 171.764C127.703 166.287 123.392 162.588 119.298 163.502C115.204 164.416 112.877 169.598 114.1 175.075C115.324 180.553 119.634 184.252 123.728 183.337Z" fill="#3F3D56"/>
<path id="Vector_34" opacity="0.2" d="M129.412 83.8523C130.11 82.2865 130.7 80.6746 131.177 79.028L111.047 80.6115L132.029 75.5355C133.032 70.2592 132.905 64.8302 131.657 59.6065C130.562 54.982 128.601 50.607 125.876 46.7136L101.318 68.6714L122.578 42.681C113.899 33.4148 100.771 29.0064 87.7242 32.2808C68.2289 37.1555 56.2821 57.2983 61.0394 77.27C62.9304 85.337 67.4637 92.5403 73.9188 97.7349C72.8344 100.173 72.0101 102.719 71.4597 105.33L99.7817 112.423L70.7887 109.91C70.4419 113.958 70.7455 118.035 71.6878 121.987C73.5821 130.054 78.1162 137.257 84.5706 142.452C81.1787 150.069 80.3956 158.591 82.343 166.698C87.1002 186.67 106.76 198.905 126.255 194.034C145.751 189.163 157.697 169.02 152.94 149.048C151.046 140.982 146.512 133.779 140.057 128.583C143.449 120.967 144.232 112.444 142.285 104.337C140.399 96.2643 135.868 89.0536 129.412 83.8523Z" fill="#6C63FF"/>
<path id="Vector_35" opacity="0.1" d="M71.6946 121.974C73.5889 130.04 78.1231 137.243 84.5774 142.439C81.1855 150.055 80.4024 158.578 82.3498 166.685C87.107 186.657 106.767 198.892 126.262 194.021C145.757 189.149 157.704 169.006 152.947 149.035C151.053 140.968 146.518 133.766 140.064 128.57C143.332 121.236 70.7284 117.925 71.6946 121.974Z" fill="black"/>
</g>
<g id="girlBackground" opacity="0.5">
<path id="Vector_36" opacity="0.2" d="M216.136 219.89C216.014 220.764 215.966 221.646 215.992 222.527C221.84 222.621 227.712 222.818 233.605 223.118C233.645 222.886 233.686 222.651 233.719 222.413C234.099 219.953 233.815 217.436 232.897 215.123C231.683 212.164 229.418 210.047 226.583 209.638C223.748 209.228 220.984 210.624 218.988 213.113C217.45 215.078 216.466 217.418 216.136 219.89Z" fill="#3F3D56"/>
<path id="Vector_37" opacity="0.2" d="M235.754 208.358C236.668 202.001 233.472 196.282 228.616 195.584C223.759 194.886 219.081 199.473 218.168 205.83C217.254 212.186 220.45 217.905 225.307 218.603C230.163 219.301 234.841 214.714 235.754 208.358Z" fill="#3F3D56"/>
<path id="Vector_38" opacity="0.2" d="M237.775 194.289C238.689 187.932 235.493 182.213 230.637 181.515C225.78 180.817 221.102 185.404 220.189 191.761C219.275 198.118 222.471 203.837 227.328 204.535C232.184 205.233 236.862 200.646 237.775 194.289Z" fill="#3F3D56"/>
<path id="Vector_39" opacity="0.2" d="M239.796 180.224C240.71 173.867 237.514 168.148 232.658 167.45C227.801 166.752 223.123 171.339 222.21 177.696C221.296 184.052 224.492 189.771 229.349 190.469C234.205 191.167 238.883 186.58 239.796 180.224Z" fill="#3F3D56"/>
<path id="Vector_40" opacity="0.2" d="M241.821 166.156C242.735 159.799 239.538 154.08 234.682 153.382C229.825 152.684 225.148 157.271 224.234 163.628C223.32 169.984 226.517 175.703 231.373 176.401C236.229 177.099 240.907 172.512 241.821 166.156Z" fill="#3F3D56"/>
<path id="Vector_41" opacity="0.2" d="M279.765 73.3448C281.187 71.9856 282.512 70.5282 283.73 68.9834L261.175 61.8979L286.132 65.6722C289.278 60.8014 291.397 55.3401 292.36 49.6224C293.322 43.9047 293.109 38.0507 291.732 32.4184L255.714 44.9792L289.893 26.695C287.716 21.2738 284.446 16.3589 280.287 12.2566C276.128 8.15433 271.168 4.95248 265.717 2.85053C260.267 0.748586 254.441 -0.208419 248.605 0.0391382C242.768 0.286695 237.045 1.73351 231.792 4.28945C226.538 6.84539 221.868 10.4557 218.071 14.8954C214.274 19.3352 211.432 24.5093 209.722 30.0953C208.011 35.6814 207.47 41.5598 208.131 47.3643C208.792 53.1687 210.641 58.775 213.563 63.8337C211.353 65.9451 209.377 68.288 207.668 70.8219L235.416 90.7098L204.984 75.3846C201.783 81.6982 200.206 88.7104 200.397 95.7867C200.588 102.863 202.541 109.78 206.078 115.912C200.299 121.421 196.187 128.446 194.212 136.183C192.237 143.919 192.479 152.055 194.91 159.661C197.342 167.266 201.864 174.034 207.96 179.191C214.057 184.347 221.481 187.684 229.384 188.82C237.288 189.956 245.351 188.845 252.653 185.614C259.955 182.383 266.2 177.163 270.675 170.55C275.149 163.937 277.673 156.198 277.957 148.218C278.241 140.239 276.273 132.34 272.28 125.426C279.186 118.841 283.679 110.126 285.037 100.681C286.394 91.2356 284.537 81.608 279.765 73.3448V73.3448Z" fill="#6C63FF"/>
<path id="Vector_42" opacity="0.1" d="M200.807 88.576C199.436 98.0215 201.293 107.653 206.078 115.912C200.299 121.421 196.187 128.446 194.212 136.183C192.237 143.919 192.479 152.055 194.91 159.661C197.342 167.266 201.864 174.034 207.96 179.191C214.057 184.347 221.481 187.684 229.384 188.82C237.288 189.956 245.351 188.845 252.653 185.614C259.955 182.383 266.2 177.163 270.675 170.55C275.149 163.937 277.673 156.198 277.957 148.218C278.241 140.239 276.274 132.34 272.28 125.426C278.956 119.069 201.488 83.849 200.807 88.576Z" fill="black"/>
</g>
<g id="boy">
<path id="Vector_43" d="M164.947 143.566C164.091 139.091 163.135 134.605 162.977 130.053C162.883 127.369 163.071 124.638 162.726 121.961C162.555 120.646 162.256 119.354 161.961 118.062L160.773 112.892C160.908 111.901 160.869 110.894 160.659 109.917C160.54 109.401 160.382 108.895 160.186 108.403C161.295 106.843 162.208 105.153 162.907 103.371C163.222 102.566 163.494 101.71 163.37 100.858C163.128 99.2245 161.545 98.1476 160.072 97.3424C159.18 96.8559 158.24 96.3863 157.22 96.3091C156.507 96.2804 155.797 96.4168 155.145 96.7078C154.493 96.9987 153.918 97.4364 153.463 97.9865C153.215 96.6639 153.298 95.3005 153.704 94.0177C152.829 93.6252 151.946 93.2561 151.057 92.8972C150.929 91.7377 150.884 90.5706 150.923 89.4047C150.943 88.0057 150.967 86.5933 151.047 85.191C153.433 84.3202 155.496 82.7405 156.958 80.6637C158.42 78.587 159.211 76.1127 159.227 73.5729C159.227 73.4287 159.227 73.2878 159.227 73.1469C159.877 71.978 160.288 70.6915 160.437 69.3622C160.585 68.0329 160.468 66.6874 160.092 65.4038C159.109 62.0489 156.539 59.2844 153.443 57.5768C150.346 55.8691 146.756 55.1478 143.204 55.0203C142.011 54.9506 140.815 55.026 139.641 55.2451C138.384 55.5544 137.166 56.0046 136.011 56.5871C134.236 57.4057 132.448 58.3014 131.119 59.7138C128.814 62.173 128.298 65.7862 128.549 69.1076C128.885 73.4689 130.341 77.6894 132.025 81.7488C132.585 83.0908 133.183 84.4529 134.105 85.5969C134.82 86.4792 136.061 86.5329 137.047 85.9156C136.969 86.9873 136.944 88.0622 136.974 89.1363C135.152 89.0726 133.377 89.3712 131.914 90.3978C131.243 90.8775 130.606 91.6324 130.754 92.4442C131.202 92.4562 131.631 92.6259 131.966 92.9236C132.301 93.2213 132.521 93.6278 132.585 94.0714C132.659 94.786 132.3 95.467 131.951 96.0843C131.8 96.3594 131.649 96.6379 131.495 96.913C130.052 98.4562 128.573 100.389 128.442 102.304C128.207 102.327 127.973 102.361 127.741 102.408C126.432 102.65 125.131 103.096 123.846 103.432L114.546 105.881L112.248 106.518L108.558 107.491C106.209 108.108 103.817 108.742 101.734 109.984C99.6503 111.225 97.8823 113.174 97.4629 115.523C97.2549 116.69 97.3824 117.905 97.1275 119.062C97.1275 119.116 97.1073 119.166 97.0939 119.216C96.8808 119.949 96.5942 120.658 96.2384 121.333C94.155 125.725 92.6721 130.512 92.9506 135.347C93.1217 138.316 93.9571 141.211 94.769 144.069C95.6211 146.993 96.4621 149.916 97.2918 152.839C97.839 154.932 98.5329 156.983 99.3685 158.979C100.8 162.175 102.923 165.013 105.585 167.289C106.332 167.959 107.167 168.523 108.068 168.966C109.44 169.56 110.939 169.803 112.429 169.674C112.832 169.647 113.228 169.604 113.62 169.54C116.502 169.084 119.189 167.695 121.655 166.131C122.686 165.478 123.693 164.79 124.675 164.068C124.799 165.195 125.024 166.309 125.346 167.396C125.564 168.144 125.832 168.912 125.745 169.687C125.624 170.768 124.839 171.653 124.433 172.667C123.571 174.807 124.456 177.192 124.601 179.487C124.738 181.638 124.215 183.771 123.796 185.888C123.095 189.419 122.681 193 122.558 196.597C122.554 197.959 122.464 199.319 122.289 200.67C121.977 202.576 121.246 204.414 121.118 206.34C120.924 209.339 122.219 212.275 122.101 215.277C121.964 218.803 119.894 222.229 120.615 225.677C120.706 226.11 120.951 226.61 121.346 226.721L121.152 226.899C120.558 227.449 119.981 228.465 120.655 228.911C120.811 229.004 120.983 229.063 121.162 229.086C122.205 229.304 123.255 229.502 124.305 229.686C124.282 230.656 124.405 231.624 124.668 232.558C124.859 232.696 125.054 232.82 125.248 232.937C125.101 233.333 125.111 233.716 125.46 233.944C125.615 234.036 125.787 234.095 125.966 234.118C134.608 235.901 143.434 236.634 152.252 236.299C153.829 236.239 155.476 236.124 156.821 235.319C158.166 234.514 159.076 232.8 158.435 231.387C157.868 230.139 156.385 229.599 155.053 229.183L153.49 228.7C153.69 228.345 153.807 227.949 153.831 227.542C153.856 227.135 153.787 226.728 153.631 226.352C153.064 225.104 151.581 224.564 150.249 224.148L146.649 223.03C146.175 222.918 145.73 222.709 145.341 222.416C145.083 222.16 144.845 221.884 144.629 221.591C144.11 220.997 143.428 220.569 142.667 220.36C142.626 219.597 142.643 218.832 142.717 218.072L143.724 205.924C143.948 203.173 144.17 200.368 143.529 197.681C143.271 196.59 142.858 195.473 143.11 194.379C143.502 192.595 145.381 191.602 146.663 190.276C148.595 188.264 149.195 185.402 149.638 182.678C151.472 171.436 152.048 160.025 151.356 148.656C155.383 147.52 159.528 146.854 163.709 146.669C164.42 146.639 164.769 146.304 164.99 145.64C165.212 144.975 165.078 144.254 164.947 143.566ZM144.868 144.16C144.891 144.043 144.918 143.925 144.938 143.808L145.217 144.163L144.868 144.16Z" fill="url(#paint0_linear)"/>
<path id="Vector_44" d="M138.326 82.5808C138.239 83.7483 137.826 84.8688 137.675 86.033C137.504 87.3146 137.655 88.6196 137.571 89.9112C137.487 91.2029 137.115 92.5616 136.132 93.4037C141.845 93.8985 147.473 95.116 152.88 97.027C151.246 95.014 151.202 92.2026 151.242 89.6194C151.296 85.7981 151.363 81.9031 152.611 78.2966C148.889 77.4646 145.034 77.4143 141.292 78.149C140.48 78.31 138.021 78.2094 137.655 78.9676C137.39 79.5245 138.386 81.7354 138.326 82.5808Z" fill="#A1616A"/>
<path id="Vector_45" opacity="0.1" d="M138.326 82.5808C138.239 83.7483 137.826 84.8688 137.675 86.033C137.504 87.3146 137.655 88.6196 137.571 89.9112C137.487 91.2029 137.115 92.5616 136.132 93.4037C141.845 93.8985 147.473 95.116 152.88 97.027C151.246 95.014 151.202 92.2026 151.242 89.6194C151.296 85.7981 151.363 81.9031 152.611 78.2966C148.889 77.4646 145.034 77.4143 141.292 78.149C140.48 78.31 138.021 78.2094 137.655 78.9676C137.39 79.5245 138.386 81.7354 138.326 82.5808Z" fill="black"/>
<path id="Vector_46" d="M145.089 221.608C145.291 221.905 145.515 222.187 145.76 222.45C146.138 222.743 146.574 222.952 147.039 223.064L150.554 224.181C151.86 224.597 153.309 225.134 153.862 226.382C154.486 227.791 153.597 229.505 152.282 230.307C150.967 231.109 149.357 231.226 147.817 231.287C139.195 231.619 130.565 230.888 122.122 229.109C121.947 229.084 121.78 229.025 121.629 228.935C120.958 228.482 121.531 227.469 122.112 226.922C124.376 224.775 126.839 222.524 129.922 222.027C131.542 221.762 133.169 221.87 134.78 221.484C135.937 221.205 137.031 220.726 138.185 220.44C140.335 219.914 143.553 219.726 145.089 221.608Z" fill="#46455B"/>
<path id="Vector_47" opacity="0.1" d="M145.089 221.608C145.291 221.905 145.515 222.187 145.76 222.45C146.138 222.743 146.574 222.952 147.039 223.064L150.554 224.181C151.86 224.597 153.309 225.134 153.862 226.382C154.486 227.791 153.597 229.505 152.282 230.307C150.967 231.109 149.357 231.226 147.817 231.287C139.195 231.619 130.565 230.888 122.122 229.109C121.947 229.084 121.78 229.025 121.629 228.935C120.958 228.482 121.531 227.469 122.112 226.922C124.376 224.775 126.839 222.524 129.922 222.027C131.542 221.762 133.169 221.87 134.78 221.484C135.937 221.205 137.031 220.726 138.185 220.44C140.335 219.914 143.553 219.726 145.089 221.608Z" fill="black"/>
<path id="Vector_48" d="M127.436 145.727C125.701 150.305 125.594 155.341 127.134 159.988C125.963 159.861 125.457 161.444 125.487 162.625C125.528 164.269 125.778 165.902 126.228 167.483C126.443 168.235 126.705 169 126.621 169.771C126.5 170.852 125.735 171.737 125.336 172.747C124.497 174.884 125.359 177.266 125.504 179.558C125.638 181.708 125.124 183.838 124.712 185.952C124.028 189.479 123.624 193.054 123.504 196.644C123.502 198.005 123.413 199.364 123.239 200.714C122.937 202.619 122.233 204.454 122.098 206.377C121.907 209.369 123.172 212.305 123.058 215.304C122.924 218.823 120.897 222.245 121.605 225.704C121.706 226.191 121.978 226.764 122.477 226.771C127.537 226.835 132.264 225.429 137.269 226.164C137.779 214.583 138.276 202.948 140.557 191.578C142.57 181.456 145.982 171.449 145.663 161.129C145.479 155.228 144.076 149.441 143.224 143.596C137.875 142.409 132.279 143.164 127.436 145.727V145.727Z" fill="#BBBDC8"/>
<path id="Vector_49" opacity="0.1" d="M127.436 145.727C125.701 150.305 125.594 155.341 127.134 159.988C125.963 159.861 125.457 161.444 125.487 162.625C125.528 164.269 125.778 165.902 126.228 167.483C126.443 168.235 126.705 169 126.621 169.771C126.5 170.852 125.735 171.737 125.336 172.747C124.497 174.884 125.359 177.266 125.504 179.558C125.638 181.708 125.124 183.838 124.712 185.952C124.028 189.479 123.624 193.054 123.504 196.644C123.502 198.005 123.413 199.364 123.239 200.714C122.937 202.619 122.233 204.454 122.098 206.377C121.907 209.369 123.172 212.305 123.058 215.304C122.924 218.823 120.897 222.245 121.605 225.704C121.706 226.191 121.978 226.764 122.477 226.771C127.537 226.835 132.264 225.429 137.269 226.164C137.779 214.583 138.276 202.948 140.557 191.578C142.57 181.456 145.982 171.449 145.663 161.129C145.479 155.228 144.076 149.441 143.224 143.596C137.875 142.409 132.279 143.164 127.436 145.727V145.727Z" fill="black"/>
<path id="Vector_50" d="M149.786 226.64C149.988 226.938 150.212 227.219 150.457 227.482C150.835 227.775 151.271 227.984 151.735 228.096L155.251 229.213C156.556 229.629 158.006 230.166 158.559 231.414C159.183 232.823 158.294 234.538 156.979 235.339C155.664 236.141 154.054 236.259 152.514 236.319C143.892 236.651 135.262 235.92 126.818 234.142C126.644 234.117 126.477 234.057 126.325 233.967C125.654 233.514 126.228 232.501 126.808 231.954C129.073 229.807 131.535 227.556 134.619 227.06C136.239 226.794 137.866 226.902 139.476 226.516C140.634 226.238 141.728 225.758 142.882 225.473C145.032 224.946 148.25 224.758 149.786 226.64Z" fill="#46455B"/>
<path id="Vector_51" d="M129.18 146.059C127.885 147.736 127.503 149.951 127.677 152.051C127.852 154.151 128.56 156.167 129.254 158.157C128.332 159.005 128.523 160.468 128.644 161.716C129.083 166.353 127.473 170.979 127.708 175.629C127.805 177.585 128.231 179.514 128.332 181.47C128.442 183.607 128.171 185.744 127.916 187.868C126.287 201.463 125.391 215.136 125.232 228.828C125.232 230.089 125.212 231.371 125.567 232.578C128.006 234.373 131.069 234.615 134.021 233.944C136.974 233.273 139.668 231.776 142.315 230.3C143.765 229.55 145.14 228.662 146.421 227.65C146.813 227.373 147.103 226.974 147.246 226.516C147.528 225.174 145.663 224.567 144.593 223.698C143.036 222.433 143.06 220.091 143.221 218.092L144.194 205.961C144.415 203.213 144.63 200.412 144.006 197.728C143.751 196.641 143.358 195.523 143.593 194.43C143.975 192.652 145.814 191.659 147.065 190.333C148.957 188.32 149.541 185.465 149.977 182.748C152.033 169.856 152.47 156.758 151.279 143.757C148.813 144.613 145.891 144.147 143.291 144.348C140.691 144.549 138.108 145.418 135.474 145.489C133.28 145.539 130.529 144.328 129.18 146.059Z" fill="#BBBDC8"/>
<path id="Vector_52" d="M146.944 86.2209C153.8 86.2209 159.357 80.6633 159.357 73.8078C159.357 66.9522 153.8 61.3947 146.944 61.3947C140.089 61.3947 134.531 66.9522 134.531 73.8078C134.531 80.6633 140.089 86.2209 146.944 86.2209Z" fill="#A1616A"/>
<path id="Vector_53" d="M153.959 94.2256C149.982 92.3987 145.834 90.9671 141.576 89.9515C138.577 89.2369 135.152 88.8074 132.646 90.6023C131.975 91.0821 131.367 91.8369 131.512 92.6488C131.954 92.6634 132.377 92.8347 132.704 93.1322C133.032 93.4296 133.243 93.8338 133.3 94.2726C133.374 94.9838 133.025 95.6649 132.683 96.2855L129.787 101.653C129.233 102.62 128.756 103.63 128.361 104.673C127.778 106.377 127.65 108.202 127.526 110L127.191 114.872C126.983 117.941 126.771 121.025 127.05 124.088C127.258 126.399 127.741 128.721 127.412 131.019C127.147 132.867 126.365 134.602 125.926 136.42C125.101 139.842 125.476 143.593 123.876 146.733C124.526 146.433 125.259 146.367 125.953 146.545C130.811 147.441 134.632 151.276 139.349 152.742C140.54 151.004 142.153 149.722 143.485 148.105C144.476 146.893 145.132 145.443 145.388 143.898C146.394 145.24 147.25 146.287 147.85 147.844C147.957 148.206 148.14 148.541 148.387 148.827C149.021 149.444 150.064 149.206 150.913 148.947C155.074 147.692 159.376 146.963 163.719 146.777C164.417 146.747 164.755 146.411 164.974 145.747C165.192 145.082 165.071 144.365 164.94 143.68C164.105 139.208 163.172 134.729 163.018 130.183C162.924 127.499 163.108 124.779 162.769 122.101C162.602 120.79 162.31 119.498 162.021 118.21L159.626 107.565C159.492 106.971 158.854 106.582 158.582 106.035C157.482 103.807 155.378 102.197 154.292 99.9625C153.47 98.1582 153.352 96.1125 153.959 94.2256V94.2256Z" fill="#46455B"/>
<path id="Vector_54" d="M136.544 78.7763C136.53 78.6026 136.571 78.4287 136.662 78.2798C136.795 78.1405 136.961 78.0376 137.145 77.9812C137.645 77.7437 138.054 77.3496 138.31 76.8586C138.566 76.3676 138.656 75.8066 138.564 75.2604L139.738 75.0155L139.775 70.9259C141.52 69.9597 143.898 70.6911 145.539 69.5537C146.461 68.9096 146.935 67.8159 147.498 66.843C148.062 65.8701 148.9 64.8904 150.021 64.8099C149.636 65.7901 149.471 66.843 149.537 67.8941C149.604 68.9451 149.901 69.9687 150.407 70.8923C151.582 70.2978 152.563 69.3808 153.235 68.2487L153.819 71.6036C153.831 71.8104 153.919 72.0054 154.067 72.1504C154.372 72.3752 154.785 72.0934 155.053 71.8149L156.573 70.322C157.213 71.9269 157.651 73.6048 157.878 75.3175C160.374 72.8952 161.149 69.0035 160.19 65.6621C159.23 62.3206 156.717 59.5528 153.691 57.8452C150.665 56.1375 147.156 55.4196 143.684 55.2921C142.518 55.2239 141.348 55.2993 140.201 55.5168C138.97 55.8265 137.779 56.2767 136.652 56.8588C134.917 57.674 133.166 58.5698 131.871 59.9789C129.617 62.4346 129.11 66.0445 129.358 69.3726C129.694 73.7339 131.109 77.9443 132.757 81.9971C133.304 83.339 133.887 84.6977 134.79 85.8418C136.149 87.5628 139.487 86.1336 139.061 82.7318C138.765 80.3028 136.544 81.2388 136.544 78.7763Z" fill="#3F3D56"/>
<path id="Vector_55" d="M141.241 145.234C137.054 153.788 130.625 161.047 122.638 166.235C120.226 167.795 117.606 169.184 114.785 169.64C114.399 169.704 114.013 169.748 113.62 169.775C112.165 169.895 110.704 169.647 109.37 169.053C108.487 168.609 107.669 168.044 106.941 167.376C104.33 165.091 102.256 162.258 100.865 159.079C100.048 157.084 99.3696 155.035 98.8354 152.946C98.0123 150.025 97.1915 147.103 96.3729 144.18C95.5711 141.322 94.7625 138.43 94.5948 135.457C94.323 130.63 95.7723 125.849 97.8088 121.464C98.1561 120.789 98.4359 120.081 98.6441 119.35C98.6441 119.3 98.6676 119.25 98.6777 119.196C98.9192 118.039 98.7951 116.828 99.0132 115.66C99.4225 113.312 101.154 111.366 103.187 110.128C105.22 108.89 107.548 108.256 109.86 107.639L113.459 106.669L115.694 106.068L124.782 103.623C126.04 103.287 127.312 102.841 128.59 102.616C130.016 102.348 130.006 102.489 130.116 103.884C130.321 106.414 130.254 108.9 130.787 111.406C131.294 113.798 132.186 116.103 132.857 118.451C134.552 124.379 134.833 130.62 136.169 136.642C136.474 138.014 136.897 139.477 138 140.332C139.265 141.338 141.396 141.587 141.731 143.164C141.855 143.865 141.543 144.583 141.241 145.234Z" fill="#6C63FF"/>
<path id="Vector_56" opacity="0.1" d="M124.681 133.515L123.766 133.673C122.823 131.197 121.884 128.717 120.78 126.309C120.206 125.05 119.585 123.809 119.102 122.511C117.291 117.525 117.599 111.611 114.241 107.504C114.001 107.199 113.728 106.923 113.426 106.679L115.66 106.079C117.617 109.172 118.997 112.595 119.733 116.18C120.095 117.931 120.3 119.723 120.89 121.407C121.393 122.685 121.967 123.932 122.612 125.144C123.886 127.758 124.846 130.613 124.681 133.515Z" fill="black"/>
<path id="Vector_57" d="M133.599 95.7153C136.011 93.6487 139.302 92.5147 142.425 93.0314C144.264 93.3299 145.971 94.1586 147.619 95.0443C150.829 96.7486 153.993 98.7112 156.308 101.513C157.696 103.279 158.849 105.219 159.737 107.283C160.172 108.185 160.51 109.131 160.743 110.104C161.562 113.895 159.552 117.663 157.616 121.025L153.892 127.486C152.181 130.455 150.457 133.444 148.229 136.051C147.203 137.252 146.075 138.363 144.952 139.473L140.017 144.345C139.928 144.449 139.812 144.527 139.681 144.569C139.573 144.575 139.466 144.557 139.365 144.517C139.265 144.477 139.175 144.416 139.101 144.338L137.47 143.039C138.972 142.002 140.368 140.819 141.637 139.507C143.771 137.299 145.525 134.76 147.27 132.23L152.698 124.359C154.285 122.055 155.942 119.518 155.764 116.727C155.681 115.385 155.177 114.124 154.651 112.892C153.718 110.703 152.705 108.548 151.611 106.427C150.383 104.049 149.041 101.7 147.273 99.6908C145.505 97.6812 143.271 96.0004 140.698 95.2724C139.93 95.0217 139.117 94.9438 138.316 95.0443C136.551 95.3362 135.296 96.8526 134.179 98.2617L130.777 102.623C130.002 103.613 129.291 104.76 129.244 102.881C129.163 100.201 131.874 97.4397 133.599 95.7153Z" fill="#6C63FF"/>
<path id="Vector_58" d="M134.652 125.138C135.323 127.721 136.313 130.653 138.799 131.633C140.56 132.327 142.624 131.764 144.147 130.626C145.67 129.489 146.75 127.885 147.743 126.265C148.584 124.809 149.51 123.404 150.518 122.058C152.507 119.562 155.214 117.582 156.556 114.677C156.952 113.812 157.227 112.886 157.677 112.054C158.157 111.286 158.701 110.56 159.301 109.883C160.845 107.969 162.08 105.825 162.961 103.529C163.27 102.727 163.535 101.868 163.414 101.019C163.176 99.3855 161.629 98.3119 160.19 97.5101C159.314 97.0237 158.398 96.5506 157.402 96.4768C155.946 96.3627 154.513 97.1478 153.618 98.2985C152.755 99.4888 152.273 100.912 152.235 102.381C152.135 104.17 152.484 106.028 151.9 107.719C151.591 108.508 151.165 109.245 150.635 109.906C148.751 112.428 146.418 114.581 143.754 116.257C143.681 114.988 143.406 113.739 142.939 112.557C142.684 111.906 137.685 112.557 137.034 112.664C135.746 112.852 133.25 113 132.438 114.228C131.626 115.455 132.633 117.519 132.961 118.757L134.652 125.138Z" fill="#A1616A"/>
<path id="Vector_59" d="M134.531 96.9464C133.789 97.5599 133.098 98.2332 132.465 98.9594C130.975 100.754 130.247 103.089 130.059 105.414C129.871 107.739 130.19 110.074 130.589 112.372C130.952 114.434 131.38 116.482 131.874 118.515C132.012 116.982 133.253 115.714 134.692 115.16C136.132 114.607 137.712 114.667 139.245 114.892C141.218 115.184 143.143 115.74 144.968 116.546L145.676 106.625C145.825 105.287 145.817 103.936 145.653 102.599C145.43 101.359 144.945 100.181 144.232 99.1425C143.518 98.1041 142.591 97.2297 141.513 96.5774C138.822 94.9402 136.947 94.8362 134.531 96.9464Z" fill="#46455B"/>
</g>
<g id="girl">
<path id="Vector_60" d="M261.273 145.22C260.954 142.528 260.171 139.911 258.958 137.487C258.217 136.011 257.314 134.599 256.848 133.018C256.469 131.733 256.395 130.381 256.093 129.076C255.791 127.771 255.258 126.523 254.828 125.248C251.792 116.19 254.073 106.28 253.094 96.7855C252.728 93.283 251.654 89.4416 248.618 87.6166C246.813 86.5329 244.646 86.3652 242.522 86.2746L241.553 86.231L239.996 86.1538C237.742 86.0431 235.48 85.9592 233.286 86.4323C230.602 87.0194 227.422 88.9082 226.576 91.6491C226.114 91.4109 225.647 91.1996 225.218 91.0017C223.49 90.235 221.678 89.6721 219.82 89.3242C221.414 88.9227 222.953 88.3278 224.403 87.5528C227.757 85.6003 228.536 79.8969 229.22 76.0824C229.905 72.2679 229.281 68.3259 228.143 64.6187C227.768 63.3033 227.256 62.0305 226.617 60.821C225.734 59.2279 224.532 57.8339 223.086 56.7263C221.639 55.6187 219.981 54.8212 218.212 54.3835C216.444 53.9459 214.605 53.8776 212.809 54.1828C211.013 54.4881 209.3 55.1604 207.776 56.1577C204.646 58.2075 201.737 61.19 199.348 64.0719C199.013 64.4678 197.61 65.8701 198.077 66.4606C198.338 66.7961 199.201 66.5277 200.106 66.1251C199.409 67.6993 199.051 69.4023 199.053 71.1239C199.055 73.2862 199.62 75.4108 200.692 77.2885C201.765 79.1662 203.307 80.7323 205.169 81.8327L205.504 84.9192V84.9427C205.541 85.9727 205.558 87.0026 205.571 88.0292C205.571 88.7505 205.571 89.4886 205.551 90.2267C204.159 91.8018 202.455 93.07 200.546 93.9506C202.123 94.2123 203.626 93.8432 205.088 93.2125C204.851 94.0366 204.451 94.8052 203.914 95.4737C204.317 95.3328 204.719 95.2053 205.122 95.0711C204.912 95.4092 204.724 95.7611 204.562 96.1246C204.313 96.699 204.132 97.3002 204.022 97.9161C203.167 99.1643 202.427 100.487 201.811 101.868V101.868C201.529 102.496 201.277 103.133 201.049 103.78V103.824C200.825 104.468 200.627 105.121 200.455 105.783C200.375 106.101 200.301 106.42 200.234 106.739C200.234 106.763 200.234 106.786 200.234 106.81C200.1 107.457 199.989 108.108 199.898 108.766C199.898 108.809 199.898 108.853 199.898 108.9C199.861 109.205 199.828 109.514 199.804 109.823C199.804 109.823 199.804 109.853 199.804 109.87C199.778 110.205 199.757 110.524 199.747 110.853C199.747 110.896 199.747 110.936 199.747 110.98C199.747 111.259 199.747 111.54 199.747 111.819V112.01C199.747 112.641 199.788 113.275 199.848 113.909C199.848 113.986 199.848 114.067 199.872 114.144C199.898 114.402 199.929 114.66 199.965 114.922C199.965 114.982 199.965 115.043 199.989 115.1C200.033 115.412 200.083 115.721 200.14 116.029C200.14 116.096 200.17 116.167 200.184 116.234C200.23 116.482 200.281 116.727 200.338 116.975L200.398 117.23C200.472 117.539 200.549 117.844 200.636 118.153C200.687 118.327 200.737 118.488 200.791 118.673C200.951 119.309 201.063 119.956 201.126 120.609L199.291 120.669C195.364 120.781 191.44 120.959 187.519 121.202C187.029 119.314 185.358 118.223 183.255 117.965C182.921 117.925 182.585 117.905 182.248 117.905V117.905C182.611 117.599 182.934 117.248 183.208 116.861C183.573 116.359 183.833 115.789 183.973 115.184C183.432 115.491 182.959 115.906 182.584 116.402C182.46 116.569 182.349 116.737 182.248 116.891V115.885C182.249 115.864 182.245 115.843 182.237 115.823C182.229 115.803 182.217 115.785 182.202 115.77C182.187 115.755 182.169 115.743 182.149 115.735C182.13 115.727 182.108 115.723 182.087 115.724H181.752C181.73 115.723 181.709 115.727 181.69 115.735C181.67 115.743 181.652 115.755 181.637 115.77C181.622 115.785 181.61 115.803 181.602 115.823C181.594 115.843 181.59 115.864 181.591 115.885V117.935H181.524H181.409C181.188 117.955 180.973 117.982 180.762 118.022C178.477 118.448 176.803 119.914 176.803 122.383C176.804 123.161 176.973 123.929 177.3 124.635C177.627 125.34 178.103 125.966 178.695 126.47C178.794 127.239 178.968 127.996 179.215 128.731C179.447 129.459 179.749 130.251 180.427 130.613C180.841 130.801 181.295 130.884 181.748 130.855C185.479 130.855 189.008 129.133 192.722 128.842C195.017 128.657 197.322 129.013 199.623 128.942C199.959 128.942 200.294 128.909 200.63 128.882C197.483 144.465 193.675 160.247 195.664 175.988C195.795 177.035 196 178.169 196.782 178.88C197.818 179.826 199.415 179.672 200.808 179.551C204.628 179.202 208.48 179.51 212.197 180.46C212.72 180.604 213.269 180.624 213.801 180.517C213.915 180.491 214.027 180.459 214.137 180.42L214.23 180.383C214.301 180.356 214.368 180.329 214.432 180.299L214.529 180.249L214.693 180.148C214.72 180.128 214.75 180.111 214.774 180.091C214.832 180.051 214.887 180.006 214.938 179.957L214.985 179.917C215.048 179.855 215.107 179.79 215.163 179.722L215.203 179.662C215.242 179.611 215.278 179.558 215.311 179.504C215.328 179.477 215.344 179.45 215.358 179.423C215.371 179.397 215.411 179.323 215.435 179.272C215.458 179.222 215.462 179.212 215.472 179.182C215.482 179.152 215.515 179.071 215.536 179.014C215.556 178.957 215.536 178.96 215.562 178.93C215.589 178.9 215.609 178.762 215.626 178.679V178.625C215.626 178.554 215.653 178.481 215.663 178.41C215.673 178.34 215.663 178.336 215.663 178.299C215.663 178.263 215.663 178.189 215.663 178.135V178.014C215.663 177.961 215.663 177.907 215.663 177.853V177.555C215.663 177.521 215.663 177.484 215.663 177.447C215.663 177.149 215.629 176.847 215.599 176.558C215.839 176.628 216.083 176.681 216.331 176.716V176.716C216.561 176.753 216.795 176.769 217.028 176.766H217.062C217.173 176.766 217.283 176.766 217.397 176.739C217.495 176.724 217.591 176.704 217.686 176.679H217.73C217.817 176.653 217.903 176.619 217.985 176.578L218.025 176.555C218.095 176.516 218.161 176.471 218.223 176.421L218.253 176.397C218.316 176.339 218.372 176.274 218.421 176.203L218.451 176.152C218.501 176.071 218.54 175.985 218.568 175.894C218.76 175.247 218.323 174.515 219.021 173.921C219.692 176.072 220.363 178.226 220.474 180.45C220.511 181.262 220.474 182.127 220.95 182.798C221.26 183.165 221.597 183.508 221.957 183.825C222.983 184.935 223.007 186.61 222.936 188.113C222.906 188.72 222.873 189.327 222.829 189.934C222.275 198.038 220.627 206.029 217.931 213.69C217.668 214.505 217.324 215.292 216.904 216.039C216.223 217.095 215.372 218.032 214.385 218.81C212.986 219.998 211.488 221.063 209.906 221.994C209.098 222.421 208.335 222.928 207.628 223.507C207.601 223.43 207.571 223.356 207.551 223.275C207.514 223.121 207.464 222.94 207.313 222.883C207.198 222.857 207.078 222.876 206.977 222.936C205.404 223.628 203.83 224.319 202.317 225.127C201.553 225.475 200.881 225.995 200.351 226.647C199.868 227.318 199.724 228.324 200.224 228.995C200.663 229.582 201.452 229.777 202.18 229.908C203.112 230.072 204.048 230.19 204.984 230.277C204.503 230.559 204.083 230.933 203.746 231.377C203.263 232.048 203.119 233.055 203.619 233.726C204.058 234.313 204.847 234.507 205.575 234.638C211.523 235.688 217.622 234.974 223.661 234.796C225.624 234.732 227.63 234.719 229.489 234.081C229.855 233.973 230.197 233.794 230.495 233.555C231.34 232.81 231.257 231.501 231.109 230.391L230.495 225.855C230.404 225.855 230.317 225.885 230.23 225.905C230.744 221.645 231.667 217.443 232.984 213.358C235.031 207.001 238.077 200.737 238.037 194.084C238.037 193.923 238.037 193.749 238.037 193.601C237.98 191.518 237.607 189.458 237.366 187.385C236.987 183.916 237.03 180.416 237.054 176.931C237.025 175.564 237.12 174.197 237.339 172.848C237.339 172.801 237.359 172.757 237.369 172.71L242.942 172.563C243.559 172.594 244.175 172.479 244.74 172.227C245.007 172.11 245.221 171.898 245.341 171.632C245.462 171.367 245.479 171.066 245.391 170.788C247.766 171.865 250.943 170.399 251.644 167.903C251.693 167.727 251.732 167.549 251.762 167.369C251.76 167.356 251.76 167.342 251.762 167.329C251.785 167.161 251.802 166.993 251.809 166.829C251.809 166.802 251.809 166.772 251.809 166.745C251.843 165.593 251.665 164.444 251.282 163.357C250.141 160.126 248.33 157.184 246.625 154.208C245.746 152.668 244.894 151.108 244.066 149.541L244.794 150.477C245.049 150.859 245.385 151.181 245.777 151.42C247.135 152.121 248.558 150.709 249.94 150.058C251.775 149.192 253.922 149.702 255.949 149.847C257.975 149.991 260.417 149.467 261.142 147.589C261.377 146.821 261.422 146.009 261.273 145.22V145.22ZM226.338 94.7994C226.338 95.5173 226.385 96.2454 226.442 96.9767C225.761 95.8638 224.975 94.819 224.094 93.8567L226.338 94.7994Z" fill="url(#paint1_linear)"/>
<path id="Vector_61" d="M182.506 117.005C182.878 116.514 183.344 116.102 183.879 115.794C183.742 116.399 183.486 116.969 183.124 117.472C182.54 118.267 181.926 118.814 181.755 118.683C181.584 118.552 181.916 117.801 182.506 117.005Z" fill="#99D55C"/>
<path id="Vector_62" opacity="0.1" d="M182.58 117.066C182.852 116.7 183.194 116.393 183.587 116.163C183.485 116.61 183.294 117.032 183.027 117.405C182.59 117.995 182.134 118.411 182.02 118.307C181.906 118.203 182.144 117.656 182.58 117.066Z" fill="black"/>
<path id="Vector_63" d="M181.691 116.338H182.027C182.048 116.338 182.069 116.342 182.088 116.35C182.108 116.358 182.126 116.37 182.141 116.385C182.156 116.4 182.167 116.418 182.175 116.437C182.184 116.457 182.188 116.478 182.188 116.499V120.3H181.55V116.499C181.55 116.459 181.564 116.421 181.59 116.391C181.616 116.362 181.652 116.343 181.691 116.338V116.338Z" fill="#F6987E"/>
<path id="Vector_64" d="M187.539 122.984C187.539 124.407 186.973 125.773 185.967 126.779C184.96 127.786 183.595 128.352 182.171 128.352C180.747 128.352 179.382 127.786 178.375 126.779C177.369 125.773 176.803 124.407 176.803 122.984C176.803 120.525 178.457 119.069 180.715 118.643C181.195 118.554 181.683 118.51 182.171 118.512C182.507 118.511 182.844 118.531 183.178 118.572C185.66 118.881 187.539 120.364 187.539 122.984Z" fill="#FC4A4A"/>
<path id="Vector_65" opacity="0.1" d="M183.177 118.572C183.08 118.757 182.553 118.908 181.916 118.908C181.5 118.938 181.084 118.851 180.715 118.656C181.195 118.567 181.683 118.524 182.171 118.525C182.507 118.52 182.843 118.536 183.177 118.572Z" fill="black"/>
<path id="Vector_66" opacity="0.1" d="M183.067 128.224C181.643 128.224 180.278 127.659 179.271 126.652C178.265 125.645 177.699 124.28 177.699 122.856C177.699 120.441 179.293 118.995 181.487 118.542C181.228 118.562 180.97 118.595 180.715 118.643C178.457 119.069 176.803 120.525 176.803 122.984C176.803 124.408 177.369 125.773 178.375 126.78C179.382 127.786 180.747 128.352 182.171 128.352C182.577 128.352 182.981 128.306 183.376 128.214C183.272 128.221 183.178 128.224 183.067 128.224Z" fill="black"/>
<path id="Vector_67" d="M206.729 227.58C207.47 228.251 208.604 228.234 209.61 228.16L214.197 227.824C217.84 227.556 221.608 227.254 224.822 225.52C225.162 225.364 225.463 225.135 225.704 224.849C225.959 224.41 226.093 223.911 226.09 223.403C226.524 218.434 227.512 213.528 229.035 208.779C231.048 202.455 234.068 196.221 234.027 189.602C234.027 189.441 234.027 189.267 234.027 189.122C233.97 187.049 233.605 184.999 233.38 182.936C233.008 179.484 233.044 176.005 233.071 172.536C233.043 171.176 233.137 169.816 233.353 168.473C233.564 167.383 234.36 166.289 233.873 165.329C232.93 163.467 229.512 162.783 227.673 162.716C225.197 162.629 222.762 163.276 220.37 163.92C219.642 164.118 218.88 164.33 218.33 164.843C217.592 165.534 217.38 166.618 217.354 167.628C217.226 172.106 219.806 176.273 220.011 180.745C220.048 181.55 220.011 182.423 220.48 183.094C220.79 183.459 221.127 183.801 221.487 184.117C222.493 185.221 222.524 186.885 222.453 188.381C222.423 188.985 222.389 189.589 222.349 190.193C221.801 198.252 220.173 206.202 217.508 213.828C217.251 214.642 216.914 215.429 216.501 216.176C215.828 217.226 214.987 218.157 214.012 218.934C212.63 220.114 211.15 221.174 209.587 222.101C208.544 222.718 207.43 223.309 206.715 224.288C206.001 225.268 205.843 226.754 206.729 227.58Z" fill="#FDA8A8"/>
<path id="Vector_68" opacity="0.1" d="M206.729 227.58C207.47 228.251 208.604 228.234 209.61 228.16L214.197 227.824C217.84 227.556 221.608 227.254 224.822 225.52C225.162 225.364 225.463 225.135 225.704 224.849C225.959 224.41 226.093 223.911 226.09 223.403C226.524 218.434 227.512 213.528 229.035 208.779C231.048 202.455 234.068 196.221 234.027 189.602C234.027 189.441 234.027 189.267 234.027 189.122C233.97 187.049 233.605 184.999 233.38 182.936C233.008 179.484 233.044 176.005 233.071 172.536C233.043 171.176 233.137 169.816 233.353 168.473C233.564 167.383 234.36 166.289 233.873 165.329C232.93 163.467 229.512 162.783 227.673 162.716C225.197 162.629 222.762 163.276 220.37 163.92C219.642 164.118 218.88 164.33 218.33 164.843C217.592 165.534 217.38 166.618 217.354 167.628C217.226 172.106 219.806 176.273 220.011 180.745C220.048 181.55 220.011 182.423 220.48 183.094C220.79 183.459 221.127 183.801 221.487 184.117C222.493 185.221 222.524 186.885 222.453 188.381C222.423 188.985 222.389 189.589 222.349 190.193C221.801 198.252 220.173 206.202 217.508 213.828C217.251 214.642 216.914 215.429 216.501 216.176C215.828 217.226 214.987 218.157 214.012 218.934C212.63 220.114 211.15 221.174 209.587 222.101C208.544 222.718 207.43 223.309 206.715 224.288C206.001 225.268 205.843 226.754 206.729 227.58Z" fill="black"/>
<path id="Vector_69" d="M206.729 227.58C207.47 228.251 208.604 228.234 209.61 228.16L214.197 227.825C217.84 227.556 221.608 227.254 224.822 225.52C225.162 225.364 225.463 225.135 225.704 224.849C225.959 224.41 226.093 223.911 226.09 223.403C226.524 218.434 227.512 213.528 229.035 208.779C231.048 202.455 234.068 196.221 234.027 189.602C230.15 190.031 226.25 190.224 222.349 190.179C221.801 198.239 220.173 206.188 217.508 213.814C217.251 214.629 216.914 215.415 216.501 216.163C215.828 217.212 214.987 218.144 214.012 218.921C212.63 220.101 211.15 221.16 209.587 222.088C208.544 222.705 207.43 223.295 206.715 224.275C206.001 225.255 205.843 226.754 206.729 227.58Z" fill="#EEEFF3"/>
<path id="Vector_70" opacity="0.1" d="M206.729 227.58C207.47 228.251 208.604 228.234 209.61 228.16L214.197 227.825C217.84 227.556 221.608 227.254 224.822 225.52C225.162 225.364 225.463 225.135 225.704 224.849C225.959 224.41 226.093 223.911 226.09 223.403C226.524 218.434 227.512 213.528 229.035 208.779C231.048 202.455 234.068 196.221 234.027 189.602C230.15 190.031 226.25 190.224 222.349 190.179C221.801 198.239 220.173 206.188 217.508 213.814C217.251 214.629 216.914 215.415 216.501 216.163C215.828 217.212 214.987 218.144 214.012 218.921C212.63 220.101 211.15 221.16 209.587 222.088C208.544 222.705 207.43 223.295 206.715 224.275C206.001 225.255 205.843 226.754 206.729 227.58Z" fill="black"/>
<path id="Vector_71" d="M216.861 226.164C217.963 225.769 219.021 225.263 220.021 224.654L225.077 221.802C225.534 221.507 226.043 221.3 226.576 221.195L227.18 225.707C227.331 226.815 227.412 228.116 226.576 228.858C226.278 229.096 225.936 229.274 225.57 229.381C223.735 230.015 221.755 230.029 219.813 230.089C213.848 230.28 207.823 230.978 201.945 229.931C201.227 229.804 200.449 229.596 200.016 229.025C199.523 228.354 199.663 227.382 200.14 226.7C200.662 226.053 201.327 225.535 202.082 225.187C203.579 224.382 205.132 223.698 206.685 223.01C206.781 222.953 206.895 222.934 207.004 222.956C207.155 223.007 207.202 223.191 207.242 223.346C207.514 224.446 208.4 225.315 209.409 225.835C209.423 225.835 214.626 226.875 216.861 226.164Z" fill="#BBBDC8"/>
<path id="Vector_72" opacity="0.1" d="M216.861 226.164C217.963 225.769 219.021 225.263 220.021 224.654L225.077 221.802C225.534 221.507 226.043 221.3 226.576 221.195L227.18 225.707C227.331 226.815 227.412 228.116 226.576 228.858C226.278 229.096 225.936 229.274 225.57 229.381C223.735 230.015 221.755 230.029 219.813 230.089C213.848 230.28 207.823 230.978 201.945 229.931C201.227 229.804 200.449 229.596 200.016 229.025C199.523 228.354 199.663 227.382 200.14 226.7C200.662 226.053 201.327 225.535 202.082 225.187C203.579 224.382 205.132 223.698 206.685 223.01C206.781 222.953 206.895 222.934 207.004 222.956C207.155 223.007 207.202 223.191 207.242 223.346C207.514 224.446 208.4 225.315 209.409 225.835C209.423 225.835 214.626 226.875 216.861 226.164Z" fill="black"/>
<path id="Vector_73" d="M210.084 232.276C210.825 232.947 211.959 232.931 212.965 232.857L217.552 232.521C221.195 232.253 224.963 231.951 228.177 230.217C228.517 230.061 228.818 229.832 229.059 229.546C229.314 229.107 229.448 228.607 229.445 228.1C229.879 223.13 230.867 218.225 232.39 213.476C234.403 207.152 237.423 200.918 237.382 194.299C237.382 194.138 237.382 193.964 237.382 193.819C237.325 191.746 236.96 189.696 236.735 187.633C236.363 184.181 236.399 180.702 236.426 177.233C236.398 175.873 236.492 174.513 236.708 173.17C236.92 172.08 237.715 170.986 237.228 170.026C236.285 168.164 232.867 167.48 231.028 167.413C228.552 167.326 226.117 167.973 223.725 168.617C222.997 168.815 222.235 169.027 221.685 169.54C220.947 170.231 220.735 171.315 220.709 172.324C220.581 176.803 223.161 180.97 223.366 185.442C223.403 186.247 223.366 187.12 223.835 187.791C224.145 188.156 224.482 188.498 224.842 188.814C225.848 189.918 225.879 191.582 225.808 193.078C225.778 193.682 225.744 194.286 225.704 194.889C225.156 202.949 223.528 210.899 220.863 218.525C220.606 219.339 220.269 220.126 219.856 220.873C219.183 221.923 218.342 222.854 217.367 223.631C215.985 224.811 214.505 225.871 212.942 226.798C211.899 227.415 210.785 228.006 210.07 228.985C209.356 229.965 209.198 231.451 210.084 232.276Z" fill="#FDA8A8"/>
<path id="Vector_74" d="M210.084 232.276C210.825 232.947 211.959 232.931 212.965 232.857L217.552 232.521C221.195 232.253 224.963 231.951 228.177 230.216C228.517 230.061 228.818 229.832 229.059 229.545C229.314 229.107 229.448 228.607 229.445 228.1C229.879 223.13 230.867 218.225 232.39 213.476C234.403 207.152 237.423 200.918 237.382 194.299C233.505 194.728 229.605 194.92 225.704 194.876C225.156 202.936 223.528 210.885 220.863 218.511C220.606 219.325 220.269 220.112 219.856 220.86C219.183 221.909 218.342 222.841 217.367 223.617C215.985 224.797 214.505 225.857 212.942 226.784C211.899 227.402 210.785 227.992 210.07 228.972C209.356 229.951 209.198 231.451 210.084 232.276Z" fill="#EEEFF3"/>
<path id="Vector_75" d="M220.216 230.861C221.318 230.466 222.376 229.96 223.376 229.351L228.432 226.499C228.889 226.203 229.398 225.997 229.932 225.892L230.535 230.404C230.686 231.511 230.767 232.813 229.932 233.555C229.633 233.793 229.291 233.97 228.925 234.078C227.09 234.712 225.111 234.725 223.168 234.786C217.203 234.977 211.178 235.675 205.3 234.628C204.582 234.501 203.804 234.293 203.371 233.722C202.878 233.051 203.018 232.078 203.495 231.397C204.017 230.75 204.682 230.232 205.437 229.884C206.934 229.079 208.487 228.395 210.04 227.707C210.136 227.65 210.25 227.631 210.359 227.653C210.51 227.704 210.557 227.888 210.597 228.042C210.869 229.143 211.755 230.012 212.764 230.532C212.778 230.532 217.981 231.572 220.216 230.861Z" fill="#BBBDC8"/>
<path id="Vector_76" d="M203.579 96.1882C205.212 94.1753 205.256 91.3639 205.216 88.7806C205.216 87.7742 205.186 86.7341 205.149 85.7109V85.6874C205.103 83.8068 204.905 81.933 204.555 80.0847V80.0847C204.378 79.1978 204.143 78.3236 203.85 77.4679C204.072 77.4176 204.293 77.3706 204.521 77.3304C208.038 76.6359 211.657 76.6359 215.173 77.3304C215.78 77.4511 217.317 77.4243 218.193 77.7229C218.442 77.7824 218.659 77.9348 218.8 78.149C218.971 78.5079 218.619 79.5479 218.364 80.4705C218.223 80.8863 218.144 81.3203 218.129 81.7588C218.163 82.1709 218.226 82.5801 218.317 82.9834C218.474 83.7248 218.682 84.4595 218.78 85.211C218.951 86.4926 218.8 87.7976 218.884 89.0893C218.968 90.3809 219.34 91.7396 220.323 92.5817C214.611 93.0714 208.985 94.2832 203.579 96.1882V96.1882Z" fill="#FDA8A8"/>
<path id="Vector_77" opacity="0.1" d="M219.656 82.8357C219.209 82.8726 218.766 82.9162 218.314 82.9665C213.845 83.4436 209.435 84.3652 205.149 85.7176V85.6941L204.555 80.0914C204.555 79.7559 204.555 79.4204 204.555 79.0681C204.555 78.4945 204.538 77.9141 204.525 77.337C208.042 76.6425 211.66 76.6425 215.177 77.337C215.784 77.4578 217.321 77.431 218.196 77.7295C218.196 78.2764 218.196 78.8232 218.216 79.3701C218.238 79.7424 218.289 80.1126 218.367 80.4772V80.4772C218.528 81.3829 218.98 82.2112 219.656 82.8357V82.8357Z" fill="black"/>
<path id="Vector_78" d="M211.191 84.3757C218.046 84.3757 223.604 78.8181 223.604 71.9626C223.604 65.107 218.046 59.5494 211.191 59.5494C204.335 59.5494 198.778 65.107 198.778 71.9626C198.778 78.8181 204.335 84.3757 211.191 84.3757Z" fill="#FDA8A8"/>
<path id="Vector_79" d="M200.287 118.767C198.083 110.967 200.096 102.589 205.36 96.4299C206.531 95.0577 207.709 93.6487 209.245 92.8267C211.073 91.8538 213.237 91.8202 215.307 91.8001C217.136 91.8001 219.021 91.8001 220.702 92.5281C222.973 93.4977 224.54 95.6046 225.862 97.6947C227.271 99.9223 228.546 102.334 228.76 104.965C228.875 106.525 228.599 108.108 228.831 109.662C229.126 111.631 230.223 113.396 230.673 115.335C230.918 116.381 230.968 117.465 231.126 118.532C231.363 119.991 231.709 121.431 232.159 122.84C235.492 133.908 240.057 144.567 245.766 154.617C247.444 157.58 249.239 160.508 250.366 163.719C250.876 165.172 251.245 166.738 250.829 168.235C250.135 170.717 246.998 172.177 244.653 171.107C244.739 171.382 244.722 171.68 244.603 171.944C244.484 172.207 244.273 172.418 244.009 172.536C243.451 172.787 242.841 172.902 242.23 172.871L221.511 173.421C220.966 173.435 220.425 173.508 219.897 173.639C217.461 174.264 218.377 175.317 218.115 176.196C217.797 177.269 216.257 177.182 215.183 176.867C215.348 178.434 215.385 180.349 213.362 180.806C212.837 180.912 212.294 180.894 211.778 180.752C208.107 179.806 204.301 179.5 200.526 179.846C199.143 179.974 197.563 180.128 196.54 179.175C195.768 178.467 195.567 177.34 195.436 176.3C193.373 159.861 197.617 143.398 200.804 127.157C201.234 124.967 201.079 121.417 200.435 119.277L200.287 118.767Z" fill="#F75842"/>
<path id="Vector_80" d="M227.798 107.437C228.284 108.84 228.891 110.218 229.056 111.695C229.187 112.876 229.029 114.07 229.099 115.254C229.228 116.569 229.499 117.866 229.908 119.122C230.554 121.566 231.35 123.967 232.293 126.312C232.743 127.369 233.263 128.533 232.901 129.623C232.538 130.714 231.414 131.388 231.092 132.471C230.757 133.616 231.428 134.82 232.283 135.655C233.139 136.491 234.209 137.084 235.001 137.974C235.863 138.943 236.343 140.181 236.95 141.328C237.812 142.846 238.801 144.288 239.906 145.639L243.962 150.903C244.215 151.283 244.546 151.603 244.935 151.843C246.277 152.54 247.682 151.135 249.048 150.501C250.859 149.639 252.98 150.145 254.982 150.289C256.985 150.434 259.398 149.914 260.112 148.042C260.349 147.282 260.398 146.476 260.256 145.693C259.942 143.016 259.168 140.414 257.968 138C257.237 136.531 256.345 135.125 255.885 133.552C255.509 132.274 255.435 130.928 255.137 129.63C254.838 128.332 254.312 127.09 253.889 125.822C250.89 116.811 253.144 106.951 252.174 97.5034C251.815 94.0177 250.752 90.1964 247.753 88.3814C245.971 87.3045 243.831 87.1368 241.714 87.0395L240.758 86.9959L239.218 86.9187C236.99 86.808 234.756 86.7241 232.585 87.1971C229.532 87.8681 225.859 90.24 225.738 93.6486C225.607 98.3303 226.304 102.998 227.798 107.437Z" fill="#6C63FF"/>
<path id="Vector_81" opacity="0.1" d="M239.234 86.9053C239.646 89.1881 239.852 91.5034 239.848 93.8231C239.909 100.446 240.623 107.041 241.341 113.617L241.814 117.978C241.902 118.784 242.006 119.629 242.485 120.276C242.965 120.924 243.971 121.263 244.606 120.763C244.995 119.223 244.918 117.606 244.84 116.019C244.673 112.644 244.506 109.268 244.341 105.891C244.179 102.603 244.005 99.3117 243.606 96.044C243.293 93.513 242.831 91.0026 242.224 88.5257C242.108 88.0126 241.948 87.5107 241.744 87.026L240.788 86.9824L239.234 86.9053Z" fill="black"/>
<path id="Vector_82" d="M217.314 89.7435C215.257 89.4483 213.103 89.2973 211.151 90.0119C209.285 90.6997 207.796 92.1121 206.454 93.5983C205.539 94.556 204.782 95.6534 204.213 96.8492C203.069 99.4794 203.515 102.512 204.213 105.297C206.115 112.966 209.893 120.364 215.955 125.426C217.8 126.926 219.765 128.272 221.829 129.452C224.513 131.026 227.284 132.472 230.253 133.381C231.082 133.636 231.964 133.85 232.813 133.669C233.662 133.488 234.464 132.8 234.491 131.931C229.626 129.197 225.265 125.664 220.934 122.148C219.746 121.233 218.635 120.223 217.609 119.129C216.072 117.401 214.989 115.315 213.499 113.547C212.157 111.96 210.48 110.621 209.473 108.806C208.842 107.566 208.419 106.231 208.222 104.854C207.725 102.046 207.631 99.0634 208.745 96.4366C209.859 93.8097 212.412 91.6525 215.264 91.6994C216.727 91.7229 218.119 92.3033 219.467 92.8703L227.955 96.4533C227.851 96.4064 228.442 94.9336 228.415 94.7289C228.334 94.0881 228.22 94.0781 227.744 93.5916C226.932 92.7797 225.671 92.2094 224.641 91.7363C222.306 90.7244 219.839 90.0533 217.314 89.7435V89.7435Z" fill="#6C63FF"/>
<path id="Vector_83" d="M200.419 69.6142C202.84 69.0761 205.081 67.9204 206.924 66.2593L205.149 75.5725C206.917 74.761 208.631 73.8376 210.282 72.808C210.52 77.0688 210.175 81.4268 208.604 85.3923C207.034 89.3578 204.139 92.9072 200.254 94.6686C203.703 95.2456 206.8 92.7697 209.869 91.0956C212.01 89.9314 215.667 91.1291 218.008 90.4246C219.994 89.8409 222.034 89.3309 223.826 88.2875C227.154 86.3451 227.909 80.6719 228.583 76.8809C229.257 73.0899 228.643 69.1646 227.523 65.4742C227.15 64.1673 226.645 62.9016 226.016 61.6966C225.152 60.1142 223.969 58.7283 222.542 57.6265C221.115 56.5246 219.475 55.7307 217.725 55.295C215.976 54.8592 214.155 54.7911 212.378 55.095C210.6 55.3988 208.906 56.0679 207.4 57.0601C204.307 59.0966 201.438 62.0925 199.077 64.9341C198.741 65.3266 197.356 66.7223 197.815 67.3094C198.375 68.0206 201.663 65.9942 202.22 65.7191C202.059 66.3264 201.059 69.4565 200.419 69.6142Z" fill="#FFD566"/>
<g id="Group" opacity="0.1">
<path id="Vector_84" opacity="0.1" d="M214.378 178.122C213.853 178.228 213.311 178.21 212.795 178.068C209.124 177.122 205.317 176.816 201.542 177.162C200.16 177.29 198.58 177.444 197.557 176.491C196.785 175.783 196.584 174.656 196.453 173.616C194.39 157.177 198.633 140.714 201.821 124.473C202.25 122.283 202.096 118.733 201.452 116.593L201.301 116.073C200.059 111.637 200.132 106.937 201.512 102.542C199.223 107.642 198.79 113.381 200.287 118.767L200.438 119.287C201.083 121.427 201.237 124.99 200.807 127.167C197.63 143.408 193.386 159.881 195.44 176.31C195.57 177.35 195.775 178.477 196.543 179.185C197.55 180.128 199.147 179.973 200.529 179.856C204.304 179.51 208.11 179.816 211.781 180.762C212.298 180.904 212.84 180.922 213.365 180.816C215.015 180.443 215.294 179.098 215.254 177.766C214.986 177.936 214.689 178.057 214.378 178.122Z" fill="black"/>
<path id="Vector_85" opacity="0.1" d="M245.666 168.423C245.753 168.698 245.735 168.996 245.616 169.26C245.497 169.524 245.286 169.734 245.022 169.852C244.464 170.104 243.855 170.219 243.244 170.187L222.524 170.738C221.979 170.751 221.438 170.824 220.91 170.956C218.474 171.58 219.39 172.633 219.129 173.512C218.81 174.586 217.27 174.498 216.196 174.183C216.297 175.139 216.347 176.223 215.915 177.028C216.857 177.169 217.87 177.045 218.122 176.196C218.374 175.347 217.468 174.263 219.904 173.639C220.432 173.508 220.973 173.435 221.517 173.421L242.224 172.871C242.835 172.902 243.444 172.787 244.002 172.536C244.266 172.418 244.477 172.207 244.596 171.944C244.715 171.68 244.733 171.382 244.646 171.107C246.994 172.177 250.128 170.717 250.822 168.235C250.927 167.859 250.986 167.471 250.997 167.081C249.742 168.584 247.471 169.255 245.666 168.423Z" fill="black"/>
</g>
<path id="Vector_86" d="M217.871 98.3186C219.653 102.108 221.228 105.991 222.591 109.95C223.691 113.141 224.661 116.492 224.295 119.847C223.93 123.202 221.947 126.59 218.726 127.647C217.357 128.097 215.891 128.1 214.452 128.134C211.005 128.214 207.565 128.492 204.149 128.966C202.559 129.229 200.957 129.407 199.348 129.499C197.074 129.573 194.799 129.217 192.531 129.402C188.861 129.7 185.375 131.415 181.691 131.415C181.242 131.442 180.793 131.359 180.383 131.173C179.712 130.811 179.413 130.026 179.185 129.301C178.672 127.664 178.269 125.785 179.138 124.306C180.209 122.484 182.641 122.118 184.751 121.957C189.502 121.622 194.258 121.387 199.019 121.253C203.082 121.139 207.484 120.984 210.634 118.414C210.847 118.263 211.02 118.062 211.141 117.831C211.26 117.438 211.245 117.017 211.1 116.633C209.852 111.754 209.316 106.72 209.51 101.687C209.489 101.236 209.606 100.788 209.846 100.405C210.131 100.098 210.501 99.8833 210.909 99.7881C213.722 98.8856 216.733 98.8018 219.592 99.5465" fill="#FDA8A8"/>
<path id="Vector_87" d="M209.426 101.684C208.939 101.851 208.516 102.164 208.212 102.579C208.346 101.18 208.165 99.768 208.192 98.3589C208.219 96.9499 208.48 95.4804 209.369 94.3867C210.5 92.9911 212.422 92.4912 214.22 92.4442C216.831 92.3738 219.531 93.132 221.444 94.9101C222.674 96.0625 223.474 97.6017 223.708 99.2715C223.769 99.7311 223.97 101.456 223.49 101.751C223.071 102.012 221.477 101.11 220.964 100.966C217.153 99.8456 213.069 100.1 209.426 101.684Z" fill="#F75842"/>
</g>
</g>
</g>
</g>
<defs>
<linearGradient id="paint0_linear" x1="129.016" y1="236.396" x2="129.016" y2="55.0203" gradientUnits="userSpaceOnUse">
<stop stop-color="#808080" stop-opacity="0.25"/>
<stop offset="0.54" stop-color="#808080" stop-opacity="0.12"/>
<stop offset="1" stop-color="#808080" stop-opacity="0.1"/>
</linearGradient>
<linearGradient id="paint1_linear" x1="60380.5" y1="142940" x2="60380.5" y2="45083" gradientUnits="userSpaceOnUse">
<stop stop-color="#808080" stop-opacity="0.25"/>
<stop offset="0.54" stop-color="#808080" stop-opacity="0.12"/>
<stop offset="1" stop-color="#808080" stop-opacity="0.1"/>
</linearGradient>
<clipPath id="clip0">
<rect width="363" height="243.23" fill="white"/>
</clipPath>
</defs>
</svg>
