<svg width="200" height="200" viewBox="0 0 231 177" fill="none" xmlns="http://www.w3.org/2000/svg">
<g id="menWomenFriends">
<g clip-path="url(#clip0)">
<g id="animateVector">
<path id="Vector" d="M105.097 1.95153C116.168 4.82741 125.933 12.5054 135.639 22.578C132.444 25.4894 130.515 29.5341 130.262 33.8485C130.009 38.163 131.453 42.4055 134.285 45.6702C137.117 48.9349 141.113 50.9632 145.42 51.322C149.727 51.6809 154.003 50.3418 157.336 47.5908C168.737 61.2102 181.186 75.608 196.379 87.5077C235.064 117.806 155.511 173.064 105.097 173.064C54.6839 173.064 13.8156 134.759 13.8156 87.5077C13.8156 40.2563 56.5154 -10.6691 105.097 1.95153Z" fill="#D5D2D2"/>
<path id="Vector_2" d="M122.032 12.8229H64.8719V42.8155H69.0013V53.8997L80.0855 42.8155H122.032V12.8229Z" fill="#6C63FF"/>
<path id="Vector_3" d="M230.661 86.3966L175.675 70.78L167.481 99.6316L171.453 100.76L168.425 111.422L182.116 103.788L222.466 115.248L230.661 86.3966Z" fill="#6C63FF"/>
</g>
<g id="otherVectors">
<path id="Vector_4" d="M147.229 45.9705C140.709 45.9705 135.424 40.6853 135.424 34.1657C135.424 27.6461 140.709 22.361 147.229 22.361C153.749 22.361 159.034 27.6461 159.034 34.1657C159.034 40.6853 153.749 45.9705 147.229 45.9705Z" fill="#FF6584"/>
<path id="Vector_5" d="M34.3189 158.744C16.9837 158.744 2.93076 156.92 2.93076 154.67C2.93076 152.421 16.9837 150.597 34.3189 150.597C51.6541 150.597 65.707 152.421 65.707 154.67C65.707 156.92 51.6541 158.744 34.3189 158.744Z" fill="#3F3D56"/>
<path id="Vector_6" d="M145.379 177C128.044 177 113.991 175.176 113.991 172.927C113.991 170.677 128.044 168.854 145.379 168.854C162.714 168.854 176.767 170.677 176.767 172.927C176.767 175.176 162.714 177 145.379 177Z" fill="#3F3D56"/>
<path id="Vector_7" d="M32.5879 140.488C32.5879 140.488 30.9013 146.297 29.7769 147.797C28.6524 149.296 27.7154 151.732 28.2776 152.107C28.8398 152.482 29.9643 156.979 28.465 157.167C26.9658 157.354 23.5925 152.294 23.4051 150.608C23.2177 148.921 22.4681 142.924 22.4681 142.924C22.4681 142.924 21.1563 137.677 23.2177 137.302C25.2792 136.927 28.465 136.74 28.465 136.74L32.5879 140.488Z" fill="#2F2E41"/>
<path id="Vector_8" d="M40.4584 146.672C40.4584 146.672 42.8946 153.044 43.4568 153.419C44.019 153.794 46.0804 157.167 41.9576 157.167C37.8348 157.167 35.586 156.042 35.586 156.042L34.2742 154.543C34.2742 154.543 34.2742 150.608 34.649 150.045C35.0238 149.483 34.649 146.672 34.649 146.672H40.4584Z" fill="#2F2E41"/>
<path id="Vector_9" d="M57.1368 88.3904C57.1368 88.3904 60.1353 108.63 57.5117 115.189C54.888 121.748 52.2644 123.622 52.2644 123.622L32.3998 142.175C32.3998 142.175 26.2156 138.989 26.7778 136.927C26.7778 136.927 28.0896 136.178 28.277 135.616C28.4644 135.053 30.9006 134.866 30.9006 134.866C30.9006 134.866 32.025 133.554 32.025 132.805C32.025 132.055 41.7699 118.749 44.9557 117.812C44.9557 117.812 46.6423 115.751 46.4549 115.376C46.2675 115.001 47.0172 113.69 47.0172 113.69L45.1431 106.381L33.3368 104.507C33.3368 104.507 28.4644 87.266 32.5872 85.9542C36.7101 84.6424 57.1368 88.3904 57.1368 88.3904Z" fill="#2F2E41"/>
<path id="Vector_10" d="M33.7123 101.509L33.3374 104.507C33.3374 104.507 33.3375 112.378 33.7123 113.127C34.0871 113.877 34.2745 115.001 33.7123 115.751C33.1501 116.501 32.213 118.375 32.5878 119.124C32.9626 119.874 31.8382 141.05 33.3374 142.549C34.8367 144.049 34.2745 145.923 34.087 146.11C33.8996 146.297 34.2744 147.047 34.2744 147.047C34.2744 147.047 41.958 148.359 41.3957 147.047C40.8335 145.735 40.8335 144.986 40.4587 144.611C40.0839 144.236 40.4587 143.674 40.4587 143.674C40.4587 143.674 39.8965 137.677 40.4587 137.302C41.0209 136.927 42.7076 118.937 42.7076 118.749C42.7076 118.562 43.2698 118.187 43.2698 117.438C43.2698 116.688 43.2698 114.252 44.2068 113.877C45.1438 113.502 44.9564 104.32 44.9564 104.32L33.7123 101.509Z" fill="#2F2E41"/>
<path id="Vector_11" d="M47.0175 34.6062C47.0175 34.6062 46.2679 40.2282 44.0191 41.3527C41.7703 42.4771 40.2711 43.0393 40.2711 43.0393L42.1451 49.5983L42.8947 55.2204H51.5152L56.2002 51.4723L54.701 45.2881L53.9514 44.1637C53.9514 44.1637 53.0144 40.0408 53.764 38.729C54.5136 37.4172 47.0175 34.6062 47.0175 34.6062Z" fill="#FFB9B9"/>
<path id="Vector_12" d="M50.7658 48.2864L49.454 50.7226C49.454 50.7226 48.517 47.3494 47.2052 46.7872C45.8934 46.225 42.7076 45.288 42.7076 44.5384C42.7076 43.7888 42.895 41.9148 42.1454 41.9148C41.3958 41.9148 34.0871 44.1636 32.9627 44.9132C31.8383 45.6628 31.6509 46.4124 31.6509 46.4124L33.7123 67.9636C33.7123 67.9636 30.7139 78.0832 31.6509 82.0187C32.5879 85.9541 33.3375 86.5163 35.5863 87.0785C37.8351 87.6407 36.5233 85.7667 43.0824 87.6407C49.6414 89.5147 53.7643 88.9525 55.2635 88.9525C56.7627 88.9525 57.6997 89.7021 58.0745 89.8895C58.4493 90.0769 58.2619 88.9525 56.9501 87.2659C55.6383 85.5793 56.2005 82.7683 56.2005 82.7683C56.2005 82.7683 57.6997 77.8958 56.7627 76.0218C55.8257 74.1478 54.5139 71.7116 55.6383 70.962C56.7627 70.2124 58.2619 64.5903 58.2619 64.5903L62.3848 49.973L53.9517 44.1636C53.9517 44.1636 54.3265 46.7872 53.0147 47.3494C51.7029 47.9116 50.7658 48.2864 50.7658 48.2864Z" fill="#575A89"/>
<path id="Vector_13" d="M61.2594 49.7856H62.3838C62.3838 49.7856 64.2578 52.9715 64.2578 55.2203C64.2578 57.4691 63.3208 70.2124 63.3208 70.2124L57.8862 75.8345L56.5744 71.5242L56.1996 61.9667L61.2594 49.7856Z" fill="#575A89"/>
<path id="Vector_14" d="M58.2617 69.6502C58.2617 69.6502 64.4459 67.9636 64.2585 70.5872C64.0711 73.2109 63.1341 76.3967 60.1357 77.1463C57.1372 77.8959 56.2002 73.7731 56.2002 73.7731C56.2002 73.7731 55.8254 70.025 58.2617 69.6502Z" fill="#575A89"/>
<path id="Vector_15" d="M35.0239 78.2706C35.0239 78.2706 35.3987 86.8911 37.6475 87.8281L32.2129 89.1399C32.2129 89.1399 29.5892 80.1446 29.964 79.7698C30.3388 79.395 35.0239 78.2706 35.0239 78.2706Z" fill="#FFB9B9"/>
<path id="Vector_16" d="M67.1669 60.7236L63.9485 59.3177C63.889 59.2917 63.825 59.2777 63.76 59.2765C63.6951 59.2752 63.6305 59.2868 63.5701 59.3105C63.5096 59.3342 63.4544 59.3695 63.4076 59.4146C63.3608 59.4596 63.3233 59.5134 63.2973 59.5729L59.7194 67.7633C59.6552 67.9101 59.6521 68.0764 59.7105 68.2255C59.769 68.3747 59.8843 68.4945 60.0311 68.5587L63.0488 69.8769C63.1956 69.9411 63.3619 69.9442 63.5111 69.8858C63.6602 69.8273 63.7801 69.712 63.8442 69.5652L67.4221 61.3748C67.4746 61.2546 67.4773 61.1185 67.4294 60.9964C67.3815 60.8743 67.2871 60.7762 67.1669 60.7236Z" fill="#2F2E41"/>
<path id="Vector_17" opacity="0.1" d="M67.1669 60.7236L63.9485 59.3177C63.889 59.2917 63.825 59.2777 63.76 59.2765C63.6951 59.2752 63.6305 59.2868 63.5701 59.3105C63.5096 59.3342 63.4544 59.3695 63.4076 59.4146C63.3608 59.4596 63.3233 59.5134 63.2973 59.5729L59.7194 67.7633C59.6552 67.9101 59.6521 68.0764 59.7105 68.2255C59.769 68.3747 59.8843 68.4945 60.0311 68.5587L63.0488 69.8769C63.1956 69.9411 63.3619 69.9442 63.5111 69.8858C63.6602 69.8273 63.7801 69.712 63.8442 69.5652L67.4221 61.3748C67.4746 61.2546 67.4773 61.1185 67.4294 60.9964C67.3815 60.8743 67.2871 60.7762 67.1669 60.7236Z" fill="black"/>
<path id="Vector_18" d="M66.9843 61.1417L64.1784 59.916C64.0582 59.8635 63.9221 59.8609 63.7999 59.9087C63.6778 59.9566 63.5797 60.051 63.5272 60.1712L60.1319 67.9435C60.0678 68.0903 60.0646 68.2566 60.123 68.4058C60.1815 68.5549 60.2968 68.6748 60.4437 68.7389L63.0488 69.8769C63.1956 69.9411 63.3619 69.9443 63.5111 69.8858C63.6602 69.8273 63.7801 69.712 63.8442 69.5652L67.2395 61.7929C67.292 61.6727 67.2946 61.5366 67.2468 61.4145C67.1989 61.2924 67.1045 61.1942 66.9843 61.1417Z" fill="#2F2E41"/>
<path id="Vector_19" d="M64.404 64.4571C63.9484 64.2581 63.7426 63.7224 63.9443 63.2606C64.1461 62.7988 64.6789 62.5858 65.1345 62.7849C65.5901 62.9839 65.7959 63.5196 65.5942 63.9814C65.3925 64.4432 64.8596 64.6561 64.404 64.4571Z" fill="#F2F2F2"/>
<path id="Vector_20" opacity="0.1" d="M33.618 48.9424L32.3999 47.1621C32.3999 47.1621 27.9022 54.096 28.277 58.781C28.6518 63.466 29.0266 63.6534 29.0266 64.403C29.0266 65.1526 29.9636 65.1526 29.0266 66.0896C28.0896 67.0267 26.7778 68.3385 27.5274 69.0881C28.277 69.8377 28.8392 69.8377 28.6518 70.7747C28.532 71.4554 28.4693 72.1449 28.4644 72.8361C28.4644 72.8361 30.0573 75.9282 30.6195 75.9282C31.1818 75.9282 36.5227 80.8943 36.5227 80.3321C36.5227 79.7699 35.9605 75.8345 35.9605 75.2723C35.9605 74.7101 35.7731 72.8361 35.3983 72.2739C35.0235 71.7117 35.0235 71.8991 35.3983 71.3369C35.7731 70.7747 35.7731 71.3369 35.7731 70.7747C35.7731 70.2125 35.5857 69.4629 36.1479 69.2755C36.7101 69.0881 37.2723 69.2755 36.8975 68.3385C36.5227 67.4014 36.8975 66.6518 37.0849 66.6518C37.2723 66.6518 38.2093 66.4644 37.6471 65.9022C37.0849 65.34 38.7715 54.4708 38.7715 54.4708C38.7715 54.4708 38.4904 51.7535 33.618 48.9424Z" fill="black"/>
<path id="Vector_21" d="M34.6491 44.9132L31.4633 46.4124C31.4633 46.4124 26.9657 53.3463 27.3405 58.0313C27.7153 62.7163 28.0901 62.9037 28.0901 63.6533C28.0901 64.403 29.0271 64.403 28.0901 65.34C27.1531 66.277 25.8413 67.5888 26.5909 68.3384C27.3405 69.088 27.9027 69.088 27.7153 70.025C27.5955 70.7057 27.5328 71.3953 27.5279 72.0864C27.5279 72.0864 29.2145 81.0817 29.7767 81.0817C30.3389 81.0817 35.5861 80.1447 35.5861 79.5825C35.5861 79.0203 35.0239 75.0848 35.0239 74.5226C35.0239 73.9604 34.8365 72.0864 34.4617 71.5242C34.0869 70.962 34.0869 71.1494 34.4617 70.5872C34.8365 70.025 34.8365 70.5872 34.8365 70.025C34.8365 69.4628 34.6491 68.7132 35.2113 68.5258C35.7735 68.3384 36.3357 68.5258 35.9609 67.5888C35.5861 66.6518 35.9609 65.9022 36.1483 65.9022C36.3357 65.9022 37.2727 65.7148 36.7105 65.1526C36.1483 64.5904 37.8349 53.7211 37.8349 53.7211C37.8349 53.7211 39.5215 47.7242 34.6491 44.9132Z" fill="#575A89"/>
<path id="Vector_22" d="M63.085 70.9886C63.2595 71.0348 63.4446 71.0195 63.6092 70.9452C63.7737 70.8709 63.9077 70.7423 63.9885 70.5809C64.8497 68.859 67.183 63.8086 65.0078 63.6532C63.0011 63.5099 61.2137 67.4229 60.484 69.2711C60.4376 69.3885 60.4166 69.5144 60.4224 69.6405C60.4282 69.7666 60.4607 69.89 60.5177 70.0027C60.5747 70.1153 60.655 70.2146 60.7532 70.2939C60.8514 70.3732 60.9653 70.4308 61.0874 70.4629L63.085 70.9886Z" fill="#FFB9B9"/>
<path id="Vector_23" d="M52.2649 39.8534C48.4354 39.8534 45.331 36.749 45.331 32.9196C45.331 29.0901 48.4354 25.9857 52.2649 25.9857C56.0943 25.9857 59.1987 29.0901 59.1987 32.9196C59.1987 36.749 56.0943 39.8534 52.2649 39.8534Z" fill="#FFB9B9"/>
<path id="Vector_24" d="M54.8124 28.9262C55.6776 29.2247 56.5707 29.4355 57.478 29.5555C58.1609 29.662 58.9601 29.7166 59.44 29.2192C59.9111 28.7311 59.8349 27.917 59.5136 27.3196C59.1923 26.7223 58.6776 26.2539 58.2916 25.6962C57.6843 24.8191 57.326 23.6563 56.355 23.2145C55.9526 23.0604 55.5256 22.9807 55.0947 22.9791C52.5751 22.8184 49.9526 22.6737 47.6192 23.6379C46.7425 23.9719 45.9658 24.5246 45.3628 25.2433C44.9678 25.7726 44.6631 26.3635 44.4609 26.9921C43.8373 28.842 43.6986 30.8209 44.0581 32.7396C44.4176 34.6583 45.2633 36.4528 46.5142 37.9514C47.3646 37.1852 46.9948 35.4149 48.0707 35.0245C48.4238 34.8964 48.8228 34.9856 49.1844 34.8842C50.3208 34.5655 50.2637 32.8093 51.2097 32.1037C51.4163 31.9925 51.5993 31.8422 51.7484 31.661C51.8316 31.4873 51.8677 31.2948 51.8532 31.1027C51.8601 30.4448 51.5511 28.7736 52.1787 28.3227C52.8175 27.8637 54.1986 28.7045 54.8124 28.9262Z" fill="#2F2E41"/>
<path id="Vector_25" d="M93.4522 34.2391L94.4608 33.3292C98.0425 30.0408 100.407 27.9065 100.407 25.2478C100.416 24.7419 100.323 24.2395 100.134 23.7701C99.9457 23.3007 99.6646 22.8739 99.308 22.5151C98.9513 22.1563 98.5263 21.8726 98.058 21.681C97.5898 21.4894 97.0878 21.3936 96.5819 21.3994C95.9849 21.4026 95.3957 21.5357 94.8552 21.7894C94.3148 22.0432 93.836 22.4115 93.4522 22.8689C93.0684 22.4115 92.5897 22.0432 92.0492 21.7894C91.5088 21.5357 90.9196 21.4026 90.3225 21.3994C89.8166 21.3936 89.3147 21.4894 88.8464 21.681C88.3782 21.8726 87.9532 22.1563 87.5965 22.5151C87.2398 22.8739 86.9588 23.3007 86.77 23.7701C86.5812 24.2395 86.4885 24.7419 86.4973 25.2478C86.4973 27.9066 88.862 30.0409 92.4436 33.3292L93.4522 34.2391Z" fill="white"/>
<path id="Vector_26" d="M197.317 99.1898L198.535 98.5901C202.879 96.4054 205.737 94.9983 206.463 92.4407C206.61 91.9565 206.658 91.4478 206.605 90.9447C206.551 90.4416 206.398 89.9543 206.153 89.5116C205.908 89.069 205.576 88.6801 205.178 88.3678C204.78 88.0555 204.323 87.8263 203.835 87.6936C203.26 87.5336 202.657 87.5006 202.068 87.5971C201.478 87.6935 200.917 87.917 200.423 88.2521C200.179 87.7073 199.819 87.2222 199.368 86.8304C198.918 86.4387 198.387 86.1497 197.814 85.9835C197.329 85.8397 196.82 85.7947 196.317 85.8511C195.814 85.9075 195.328 86.0642 194.887 86.312C194.446 86.5597 194.059 86.8934 193.749 87.2934C193.439 87.6933 193.213 88.1514 193.083 88.6404C192.357 91.198 194.048 93.8972 196.595 98.039L197.317 99.1898Z" fill="white"/>
<path id="Vector_27" d="M167.538 68.9208C167.538 68.9208 169.396 74.4965 168.364 75.7355C167.331 76.9746 174.559 72.0184 174.559 72.0184L170.635 67.4752L167.538 68.9208Z" fill="#A0616A"/>
<path id="Vector_28" d="M171.777 68.9117C166.656 68.9117 162.505 64.7606 162.505 59.6399C162.505 54.5193 166.656 50.3682 171.777 50.3682C176.897 50.3682 181.048 54.5193 181.048 59.6399C181.048 64.7606 176.897 68.9117 171.777 68.9117Z" fill="#2F2E41"/>
<path id="Vector_29" d="M135.736 131.699L140.486 135.416L143.17 131.079L138.421 127.775L135.736 131.699Z" fill="#A0616A"/>
<path id="Vector_30" d="M142.448 159.68L141.209 165.669L137.698 170.419C137.698 170.419 128.199 173.31 134.6 174.755C141.002 176.201 142.448 173.723 142.448 173.723L146.991 169.799V175.168H149.882L150.501 167.528C150.501 167.528 150.914 165.256 149.056 162.778L148.643 159.061L142.448 159.68Z" fill="#2F2E41"/>
<path id="Vector_31" d="M166.402 85.5445L164.75 95.0438C164.75 95.0438 147.197 93.1852 145.958 96.6958C144.718 100.206 144.305 101.239 144.305 101.239L147.816 102.478L149.468 99.3804C149.971 99.2022 150.506 99.1287 151.038 99.1642C151.571 99.1997 152.091 99.3435 152.566 99.5869C154.218 100.413 168.673 102.478 169.706 99.7934C170.738 97.1088 173.629 87.1965 173.629 87.1965L169.293 83.6859L166.402 85.5445Z" fill="#A0616A"/>
<path id="Vector_32" opacity="0.1" d="M166.402 85.5445L164.75 95.0438C164.75 95.0438 147.197 93.1852 145.958 96.6958C144.718 100.206 144.305 101.239 144.305 101.239L147.816 102.478L149.468 99.3804C149.971 99.2022 150.506 99.1287 151.038 99.1642C151.571 99.1997 152.091 99.3435 152.566 99.5869C154.218 100.413 168.673 102.478 169.706 99.7934C170.738 97.1088 173.629 87.1965 173.629 87.1965L169.293 83.6859L166.402 85.5445Z" fill="black"/>
<path id="Vector_33" d="M156.696 113.01L155.251 117.966L151.534 136.965C151.534 136.965 151.121 151.007 150.501 152.659C149.882 154.311 149.882 154.518 150.501 155.137C151.121 155.757 152.36 157.822 150.501 159.061C148.643 160.3 142.034 161.745 141.828 160.3C141.621 158.854 141.621 156.583 141.828 155.55C142.034 154.518 141.208 138.41 141.208 138.41L143.686 113.836L152.153 109.912L156.696 113.01Z" fill="#2F2E41"/>
<path id="Vector_34" opacity="0.1" d="M156.696 113.01L155.251 117.966L151.534 136.965C151.534 136.965 151.121 151.007 150.501 152.659C149.882 154.311 149.882 154.518 150.501 155.137C151.121 155.757 152.36 157.822 150.501 159.061C148.643 160.3 142.034 161.745 141.828 160.3C141.621 158.854 141.621 156.583 141.828 155.55C142.034 154.518 141.208 138.41 141.208 138.41L143.686 113.836L152.153 109.912L156.696 113.01Z" fill="black"/>
<path id="Vector_35" d="M147.817 93.5983L143.274 102.272C143.274 102.272 117.254 113.836 119.526 118.586C121.797 123.335 134.394 132.215 134.394 132.215C134.394 132.215 135.014 135.726 136.872 134.693C138.731 133.66 143.274 128.291 142.861 127.672C142.448 127.052 141.002 125.607 140.383 125.813C139.763 126.02 132.535 120.444 132.535 120.444L144.926 117.346C144.926 117.346 159.794 116.933 160.62 109.912C161.446 102.891 160.62 101.652 160.62 101.652L161.653 99.3804L153.186 94.2178L147.817 93.5983Z" fill="#2F2E41"/>
<path id="Vector_36" d="M141.415 127.878L145.751 131.802C145.751 131.802 149.468 130.15 151.74 130.769C154.011 131.389 157.935 131.802 157.935 131.802L157.316 135.313L152.047 134.341L156.283 140.269C156.283 140.269 156.283 149.562 153.598 149.562C150.914 149.562 151.74 143.986 151.74 143.986L143.48 137.584C143.48 137.584 139.349 135.932 138.936 135.932C138.523 135.932 141.415 127.878 141.415 127.878Z" fill="#2F2E41"/>
<path id="Vector_37" d="M168.364 70.5728C164.486 70.5728 161.343 67.4293 161.343 63.5516C161.343 59.6739 164.486 56.5304 168.364 56.5304C172.242 56.5304 175.385 59.6739 175.385 63.5516C175.385 67.4293 172.242 70.5728 168.364 70.5728Z" fill="#A0616A"/>
<path id="Vector_38" d="M175.281 69.024C175.281 69.024 171.977 68.198 170.945 69.024C169.912 69.85 169.706 71.7086 168.26 71.9151C166.815 72.1216 165.576 72.1216 165.369 72.3281C165.163 72.5346 160.413 78.3168 160.413 78.3168C160.413 78.3168 157.522 79.9689 156.902 82.2404C156.283 84.512 150.088 92.1528 149.262 92.9788C148.436 93.8048 154.631 97.9349 156.696 99.3805C158.761 100.826 164.75 101.446 166.608 98.1415C168.467 94.8373 178.586 73.3606 175.281 69.024Z" fill="#575A89"/>
<path id="Vector_39" d="M167.435 82.447L165.783 91.9463C165.783 91.9463 148.23 90.0877 146.991 93.5983C145.752 97.109 145.339 98.1415 145.339 98.1415L148.849 99.3805L150.501 96.2829C151.005 96.1047 151.539 96.0311 152.071 96.0667C152.604 96.1022 153.124 96.246 153.599 96.4894C155.251 97.3155 169.706 99.3805 170.739 96.6959C171.772 94.0113 174.663 84.099 174.663 84.099L170.326 80.5884L167.435 82.447Z" fill="#A0616A"/>
<path id="Vector_40" d="M171.381 69.8929C171.381 69.8929 166.402 80.3819 166.815 83.273C167.228 86.1641 168.674 84.099 168.674 84.099C168.674 84.099 170.532 81.2079 171.358 82.86C172.184 84.512 173.217 86.7836 174.043 86.5771C174.869 86.3706 179.412 71.0891 176.934 69.6436C174.456 68.198 171.381 69.8929 171.381 69.8929Z" fill="#575A89"/>
<path id="Vector_41" d="M181.82 56.7039C176.699 56.7039 172.548 52.5528 172.548 47.4321C172.548 42.3115 176.699 38.1604 181.82 38.1604C186.941 38.1604 191.092 42.3115 191.092 47.4321C191.092 52.5528 186.941 56.7039 181.82 56.7039Z" fill="#2F2E41"/>
<path id="Vector_42" d="M189.818 55.1097C188.618 55.977 187.228 56.5444 185.763 56.7642C184.299 56.9841 182.804 56.8501 181.402 56.3734C180 55.8968 178.733 55.0913 177.706 54.0245C176.679 52.9576 175.923 51.6603 175.5 50.2412C175.66 51.513 176.082 52.7377 176.739 53.8382C177.396 54.9387 178.274 55.891 179.318 56.6349C180.362 57.3789 181.548 57.8984 182.803 58.1606C184.058 58.4228 185.353 58.422 186.607 58.1583C187.862 57.8946 189.048 57.3737 190.091 56.6285C191.134 55.8833 192.011 54.93 192.666 53.8288C193.322 52.7275 193.743 51.5022 193.901 50.2303C194.059 48.9584 193.952 47.6674 193.587 46.439C193.794 48.0894 193.554 49.7654 192.891 51.291C192.228 52.8166 191.167 54.1356 189.818 55.1097V55.1097Z" fill="#2F2E41"/>
<path id="Vector_43" d="M174.249 67.9845C170.494 67.9845 167.45 64.9404 167.45 61.1852C167.45 57.43 170.494 54.3859 174.249 54.3859C178.004 54.3859 181.048 57.43 181.048 61.1852C181.048 64.9404 178.004 67.9845 174.249 67.9845Z" fill="#2F2E41"/>
<path id="Vector_44" d="M168.531 63.3486C165.203 63.3486 162.505 61.2385 162.505 58.6355C162.505 56.0325 165.203 53.9224 168.531 53.9224C171.86 53.9224 174.558 56.0325 174.558 58.6355C174.558 61.2385 171.86 63.3486 168.531 63.3486Z" fill="#2F2E41"/>
<path id="Vector_45" d="M168.261 66.6492C167.519 66.6492 166.918 65.5859 166.918 64.2744C166.918 62.9628 167.519 61.8995 168.261 61.8995C169.002 61.8995 169.603 62.9628 169.603 64.2744C169.603 65.5859 169.002 66.6492 168.261 66.6492Z" fill="#A0616A"/>
<path id="Vector_46" d="M149.835 99.2901C149.835 99.2901 146.18 97.1927 145.501 97.7187C144.822 98.2446 144.521 99.8903 144.521 99.8903L148.746 101.549L149.985 99.2771L149.835 99.2901Z" fill="#2F2E41"/>
<path id="Vector_47" d="M167.255 170.862V145.631" stroke="#3F3D56" stroke-width="2" stroke-miterlimit="10"/>
<path id="Vector_48" d="M167.257 149.199C165.286 149.199 163.688 147.601 163.688 145.631C163.688 143.66 165.286 142.063 167.257 142.063C169.227 142.063 170.825 143.66 170.825 145.631C170.825 147.601 169.227 149.199 167.257 149.199Z" fill="#3F3D56"/>
<path id="Vector_49" d="M167.256 161.182C167.256 161.182 167.766 150.218 178.215 151.493Z" fill="#3F3D56"/>
<path id="Vector_50" d="M58.5869 152.171V126.94" stroke="#3F3D56" stroke-width="2" stroke-miterlimit="10"/>
<path id="Vector_51" d="M58.5872 130.508C56.6165 130.508 55.0191 128.91 55.0191 126.94C55.0191 124.969 56.6165 123.372 58.5872 123.372C60.5578 123.372 62.1553 124.969 62.1553 126.94C62.1553 128.91 60.5578 130.508 58.5872 130.508Z" fill="#3F3D56"/>
<path id="Vector_52" d="M58.5868 142.49C58.5868 142.49 59.0965 131.527 69.5459 132.802Z" fill="#3F3D56"/>
<path id="Vector_53" d="M14.5269 152.748V102.285" stroke="#3F3D56" stroke-width="2" stroke-miterlimit="10"/>
<path id="Vector_54" d="M14.5271 105.853C12.5565 105.853 10.959 104.256 10.959 102.285C10.959 100.315 12.5565 98.7173 14.5271 98.7173C16.4977 98.7173 18.0952 100.315 18.0952 102.285C18.0952 104.256 16.4977 105.853 14.5271 105.853Z" fill="#3F3D56"/>
<path id="Vector_55" d="M14.5269 116.816C14.5269 116.816 14.0171 105.853 3.56769 107.128Z" fill="#3F3D56"/>
<path id="Vector_56" d="M14.527 151.768C14.527 151.768 16.8208 131.595 3.56796 130.575" stroke="#3F3D56" stroke-width="2" stroke-miterlimit="10"/>
<path id="Vector_57" d="M3.56767 134.143C1.59708 134.143 -0.000427246 132.546 -0.000427246 130.575C-0.000427246 128.605 1.59708 127.007 3.56767 127.007C5.53827 127.007 7.13574 128.605 7.13574 130.575C7.13574 132.546 5.53827 134.143 3.56767 134.143Z" fill="#3F3D56"/>
</g>
</g>
</g>
<defs>
<clipPath id="clip0">
<rect width="230.661" height="177" transform="matrix(-1 0 0 1 230.661 0)" fill="white"/>
</clipPath>
</defs>
</svg>
